<svg width="300" height="370" viewBox="0 0 300 370" fill="none" xmlns="http://www.w3.org/2000/svg">
<path d="M55.678 68.0114C56.2739 68.0139 56.87 68.0164 57.4838 68.019C58.1278 68.0343 58.7719 68.0502 59.4159 68.0668C60.0847 68.0766 60.7534 68.086 61.4225 68.0949C87.8321 68.5334 115.143 73.375 139.423 83.5148C139.729 83.6424 140.035 83.77 140.35 83.9016C141.823 84.52 143.287 85.1505 144.747 85.7966C145.269 86.0223 145.792 86.2478 146.33 86.4803C146.786 86.6836 147.243 86.8869 147.714 87.0961C150.128 87.7836 152.083 87.0377 154.299 86.0658C154.761 85.8685 155.224 85.6712 155.7 85.4677C156.201 85.2532 156.702 85.0384 157.218 84.8171C176.279 76.8786 196.75 71.7573 217.38 69.4673C217.87 69.4129 217.87 69.4129 218.37 69.3572C225.336 68.5963 232.317 68.1676 239.327 68.1068C239.976 68.099 240.625 68.0864 241.274 68.0692C242.234 68.0442 243.195 68.0356 244.155 68.0275C244.713 68.0184 245.272 68.0093 245.848 68C247.355 68.2669 247.355 68.2669 248.734 69.1299C250.183 71.1772 250.043 72.8601 249.975 75.2789C249.971 75.7324 249.968 76.1862 249.964 76.6534C249.951 78.0983 249.921 79.5422 249.891 80.9869C249.879 81.968 249.868 82.9489 249.858 83.9301C249.832 86.3317 249.792 88.7328 249.742 91.1342C250.336 91.1247 250.931 91.1149 251.544 91.1052C253.754 91.072 255.964 91.051 258.174 91.0338C259.13 91.0245 260.086 91.0121 261.042 90.9963C262.417 90.9739 263.793 90.9636 265.169 90.9556C265.593 90.9461 266.02 90.9366 266.46 90.9269C266.859 90.9269 267.262 90.9267 267.674 90.9267C268.026 90.9224 268.375 90.9184 268.737 90.9142C270.411 91.2658 271.02 91.7133 272.171 92.9637C272.546 94.7971 272.493 96.6214 272.476 98.4843C272.478 99.0559 272.481 99.6278 272.486 100.217C272.496 101.805 272.491 103.393 272.483 104.981C272.478 106.693 272.486 108.405 272.493 110.117C272.503 113.472 272.501 116.826 272.493 120.181C272.488 122.907 272.488 125.633 272.491 128.358C272.491 128.94 272.491 128.94 272.491 129.533C272.493 130.32 272.493 131.108 272.493 131.895C272.501 139.283 272.493 146.67 272.481 154.057C272.471 160.399 272.471 166.74 272.483 173.082C272.496 180.442 272.501 187.803 272.493 195.164C272.493 195.948 272.491 196.733 272.491 197.517C272.491 198.096 272.491 198.096 272.491 198.687C272.488 201.41 272.491 204.133 272.496 206.856C272.503 210.174 272.501 213.492 272.488 216.809C272.483 218.503 272.481 220.196 272.488 221.89C272.496 223.724 272.486 225.557 272.476 227.391C272.481 227.929 272.486 228.467 272.491 229.021C272.483 229.511 272.478 230.001 272.471 230.506C272.471 231.141 272.471 231.141 272.471 231.789C272.171 232.912 272.171 232.912 271.212 233.962C269.377 234.965 267.813 234.995 265.758 234.971C265.351 234.974 264.944 234.977 264.525 234.979C263.156 234.986 261.788 234.98 260.42 234.973C259.431 234.976 258.443 234.978 257.454 234.982C254.732 234.99 252.011 234.986 249.289 234.98C246.356 234.976 243.423 234.983 240.49 234.988C235.075 234.995 229.66 234.995 224.244 234.99C219.242 234.985 214.239 234.984 209.237 234.986C208.905 234.986 208.573 234.986 208.232 234.986C206.886 234.987 205.54 234.988 204.194 234.988C191.562 234.994 178.93 234.989 166.299 234.979C155.072 234.97 143.846 234.971 132.619 234.98C120.011 234.989 107.403 234.993 94.7949 234.988C93.4514 234.987 92.1076 234.987 90.7639 234.986C90.4332 234.986 90.1023 234.986 89.7615 234.986C84.7615 234.983 79.7617 234.986 74.762 234.991C69.078 234.996 63.3938 234.994 57.7098 234.985C54.808 234.98 51.9062 234.978 49.0044 234.984C46.3503 234.989 43.6965 234.986 41.0424 234.977C40.08 234.975 39.1175 234.976 38.1551 234.98C36.851 234.986 35.5476 234.98 34.2436 234.971C33.8662 234.976 33.4888 234.98 33.1 234.984C31.382 234.962 30.2918 234.783 28.7891 233.962C27.6372 232.702 27.5303 232.163 27.5288 230.506C27.5225 230.016 27.5163 229.526 27.5099 229.021C27.5152 228.483 27.5206 227.945 27.526 227.391C27.5205 226.533 27.5205 226.533 27.5148 225.659C27.5048 224.07 27.5097 222.483 27.5171 220.895C27.5225 219.183 27.5142 217.47 27.5076 215.758C27.497 212.403 27.4993 209.049 27.5062 205.694C27.5116 202.969 27.5123 200.243 27.5097 197.517C27.5094 197.129 27.509 196.742 27.5086 196.342C27.5079 195.555 27.5071 194.767 27.5063 193.98C27.4995 186.593 27.5073 179.206 27.5202 171.818C27.5308 165.477 27.5289 159.135 27.518 152.793C27.5052 145.433 27.5001 138.072 27.5075 130.712C27.5082 129.927 27.509 129.143 27.5097 128.358C27.5101 127.972 27.5105 127.586 27.5108 127.188C27.5129 124.465 27.5094 121.742 27.5038 119.019C27.4971 115.701 27.4989 112.383 27.5116 109.066C27.5179 107.372 27.5204 105.679 27.5125 103.986C27.5041 102.152 27.5141 100.318 27.526 98.4843C27.5207 97.9464 27.5154 97.4083 27.5099 96.8541C27.5555 93.2608 27.5555 93.2608 28.9756 91.7175C30.2224 91.1307 30.9501 90.9107 32.326 90.9267C32.7271 90.9267 33.1282 90.9269 33.5415 90.9269C33.9676 90.9364 34.3937 90.9459 34.8328 90.9556C35.2743 90.9581 35.7158 90.9609 36.1707 90.9634C37.5762 90.9736 38.9809 90.9966 40.3861 91.0198C41.3408 91.029 42.2958 91.0375 43.2505 91.0448C45.5869 91.065 47.9228 91.0965 50.259 91.1342C50.251 90.7551 50.251 90.7551 50.2428 90.3683C50.1901 87.7347 50.1541 85.1008 50.1279 82.4667C50.1159 81.4843 50.0997 80.5016 50.079 79.519C50.05 78.1055 50.0365 76.6926 50.026 75.2789C50.0135 74.8406 50.0013 74.4021 49.9886 73.9506C49.9876 71.8959 50.039 70.861 51.2769 69.1309C52.8976 68.1074 53.7494 67.9889 55.678 68.0114ZM58.3718 76.0418C58.3718 118.15 58.3718 160.258 58.3718 203.642C64.1989 203.943 70.026 204.245 76.0294 204.556C99.1464 206.805 121.541 211.756 142.941 220.572C144.505 221.254 144.505 221.254 146.183 221.478C146.183 179.672 146.183 137.866 146.183 94.7929C136.694 90.8785 136.694 90.8785 127.063 87.3611C126.513 87.1753 125.963 86.9895 125.396 86.798C109.217 81.4219 92.4098 78.1103 75.3733 76.6134C74.8791 76.5687 74.8791 76.5687 74.3752 76.523C69.0048 76.0453 63.7978 76.0418 58.3718 76.0418ZM224.777 76.585C224.433 76.6147 224.09 76.6446 223.737 76.6754C199.222 78.838 176.369 85.5309 153.818 94.7929C153.818 136.599 153.818 178.405 153.818 221.478C156.297 220.686 158.704 219.912 161.124 219C187.526 209.156 213.217 205.113 241.629 203.642C241.629 161.534 241.629 119.426 241.629 76.0418C235.933 76.0418 230.42 76.0808 224.777 76.585ZM35.4647 98.9091C35.4647 141.168 35.4647 183.427 35.4647 226.966C69.1669 226.966 102.869 226.966 137.592 226.966C117.205 213.941 83.4424 211.581 59.8579 211.198C58.7851 211.18 57.7125 211.157 56.64 211.132C56.3143 211.129 55.9887 211.125 55.6533 211.121C53.9532 211.078 52.6354 210.981 51.2135 210.044C50.6731 209.009 50.6743 208.446 50.6701 207.296C50.6673 206.91 50.6648 206.524 50.6621 206.127C50.6616 205.701 50.6611 205.274 50.6606 204.835C50.6571 204.159 50.6571 204.159 50.6536 203.469C50.6461 201.949 50.6421 200.428 50.6381 198.908C50.6336 197.822 50.6289 196.736 50.6239 195.65C50.6124 193.001 50.6029 190.352 50.5944 187.702C50.5844 184.621 50.5717 181.539 50.5589 178.457C50.5362 172.961 50.5155 167.465 50.4963 161.969C50.4775 156.63 50.4578 151.29 50.4366 145.95C50.4353 145.621 50.4341 145.292 50.4326 144.953C50.4261 143.303 50.4196 141.652 50.4131 140.002C50.3587 126.304 50.3077 112.607 50.259 98.9091C45.3769 98.9091 40.4948 98.9091 35.4647 98.9091ZM249.742 98.9091C249.739 100.287 249.736 101.665 249.733 103.084C249.707 115.711 249.673 128.337 249.632 140.963C249.627 142.617 249.622 144.271 249.617 145.925C249.616 146.254 249.614 146.584 249.613 146.923C249.596 152.259 249.585 157.594 249.575 162.93C249.564 168.403 249.548 173.875 249.528 179.348C249.516 182.423 249.507 185.497 249.504 188.572C249.501 191.464 249.492 194.355 249.477 197.247C249.473 198.311 249.471 199.374 249.472 200.438C249.473 201.885 249.465 203.333 249.455 204.78C249.458 205.418 249.458 205.418 249.462 206.068C249.457 206.455 249.453 206.841 249.448 207.239C249.447 207.574 249.446 207.908 249.445 208.253C249.212 209.385 248.754 209.782 247.833 210.502C246.468 211.156 245.281 211.034 243.756 211.055C243.096 211.067 242.437 211.079 241.777 211.092C241.428 211.098 241.079 211.104 240.719 211.11C214.648 211.601 189.023 216.293 164.795 225.594C164.31 225.779 163.826 225.965 163.327 226.155C162.872 226.33 162.872 226.33 162.408 226.509C162.408 226.66 162.408 226.811 162.408 226.966C196.11 226.966 229.813 226.966 264.537 226.966C264.537 184.707 264.537 142.449 264.537 98.9091C259.654 98.9091 254.772 98.9091 249.742 98.9091Z" fill="#64748B"/>
<path d="M292.307 279.874C292.327 279.936 292.368 280.106 292.43 280.384C292.492 280.651 292.564 280.986 292.646 281.387C292.739 281.789 292.827 282.232 292.909 282.715C293.002 283.199 293.084 283.688 293.156 284.182C293.238 284.666 293.305 285.14 293.357 285.603C293.408 286.056 293.434 286.452 293.434 286.792C293.434 287.811 293.264 288.697 292.924 289.448C292.585 290.2 292.142 290.817 291.596 291.301C291.061 291.785 290.454 292.145 289.774 292.382C289.095 292.619 288.415 292.737 287.736 292.737H280.864V289.355H287.844C287.978 289.355 288.173 289.335 288.431 289.294C288.698 289.252 288.961 289.149 289.218 288.985C289.476 288.81 289.697 288.552 289.882 288.213C290.078 287.873 290.176 287.399 290.176 286.792C290.176 286.566 290.155 286.282 290.114 285.943C290.073 285.603 290.021 285.238 289.96 284.846C289.898 284.455 289.826 284.054 289.743 283.642C289.661 283.23 289.579 282.844 289.496 282.484C289.424 282.123 289.352 281.799 289.28 281.511C289.208 281.223 289.151 281.001 289.11 280.847L292.307 279.874ZM291.982 276.647L289.543 274.176L291.951 271.674L294.453 274.176L291.982 276.647ZM285.775 276.616L283.335 274.145L285.728 271.644L288.23 274.145L285.775 276.616Z" fill="#334155"/>
<path d="M261.666 288.923C262.088 288.233 262.531 287.512 262.994 286.761C263.457 286.009 263.941 285.278 264.446 284.568C264.96 283.848 265.506 283.168 266.082 282.53C266.659 281.881 267.271 281.315 267.92 280.831C268.569 280.337 269.258 279.951 269.989 279.673C270.72 279.385 271.508 279.241 272.352 279.241C273.134 279.241 273.901 279.375 274.653 279.642C275.404 279.9 276.073 280.311 276.66 280.878C277.247 281.433 277.72 282.159 278.081 283.055C278.441 283.94 278.621 285.016 278.621 286.282C278.621 286.9 278.565 287.461 278.451 287.965C278.348 288.47 278.199 288.933 278.003 289.355H281.354V292.737H263.334C262.963 292.737 262.562 292.706 262.129 292.644C261.697 292.582 261.264 292.495 260.832 292.382C260.41 292.258 260.009 292.119 259.628 291.965C259.247 291.8 258.928 291.62 258.67 291.424L258.439 291.239C257.883 291.754 257.224 292.13 256.462 292.366C255.711 292.593 254.82 292.716 253.791 292.737H251.289V289.355H253.683C254.362 289.355 254.897 289.293 255.289 289.17C255.69 289.036 255.994 288.871 256.2 288.676C256.416 288.47 256.555 288.248 256.616 288.012C256.689 287.765 256.725 287.528 256.725 287.301V282.067H260.091V287.178C260.091 287.415 260.137 287.636 260.23 287.842C260.323 288.048 260.446 288.233 260.6 288.398C260.755 288.562 260.925 288.691 261.11 288.784C261.295 288.876 261.481 288.923 261.666 288.923ZM272.352 282.607C271.683 282.607 271.024 282.808 270.375 283.209C269.727 283.611 269.094 284.136 268.476 284.784C267.858 285.423 267.266 286.143 266.7 286.946C266.134 287.749 265.604 288.552 265.11 289.355H272.166C272.259 289.355 272.383 289.35 272.537 289.34C272.691 289.329 272.856 289.309 273.031 289.278C273.216 289.237 273.407 289.18 273.603 289.108C273.798 289.036 273.989 288.943 274.174 288.83V288.846C274.359 288.722 274.534 288.578 274.699 288.413C274.874 288.248 275.023 288.063 275.147 287.857C275.281 287.641 275.389 287.404 275.471 287.147C275.553 286.879 275.595 286.591 275.595 286.282C275.595 285.665 275.507 285.129 275.332 284.676C275.167 284.213 274.936 283.827 274.637 283.518C274.349 283.209 274.009 282.983 273.618 282.839C273.227 282.684 272.805 282.607 272.352 282.607Z" fill="#334155"/>
<path d="M237.923 297.648C239.519 297.648 240.826 297.535 241.845 297.308C242.864 297.082 243.667 296.726 244.254 296.243C244.491 296.047 244.697 295.836 244.872 295.61C245.057 295.393 245.206 295.141 245.32 294.853C245.443 294.575 245.536 294.261 245.598 293.911C245.67 293.571 245.711 293.18 245.721 292.737H243.112C242.36 292.737 241.598 292.634 240.826 292.428C240.064 292.212 239.369 291.857 238.742 291.363C238.124 290.869 237.614 290.215 237.213 289.402C236.822 288.589 236.626 287.585 236.626 286.391C236.626 285.691 236.683 285.063 236.796 284.507C236.919 283.951 237.074 283.457 237.259 283.024C237.444 282.582 237.65 282.201 237.877 281.882C238.103 281.563 238.325 281.285 238.541 281.048C239.128 280.461 239.797 280.008 240.548 279.689C241.31 279.36 242.128 279.195 243.003 279.195C243.765 279.195 244.476 279.313 245.134 279.55C245.804 279.787 246.401 280.142 246.926 280.615C247.636 281.285 248.171 282.129 248.532 283.148C248.902 284.167 249.088 285.387 249.088 286.808V289.356H251.913V292.737H249.088C249.067 294.158 248.83 295.357 248.377 296.335C247.935 297.313 247.265 298.163 246.37 298.883C245.907 299.243 245.397 299.557 244.841 299.825C244.285 300.103 243.662 300.33 242.973 300.505C242.283 300.68 241.521 300.808 240.687 300.891C239.864 300.983 238.942 301.03 237.923 301.03V297.648ZM243.003 282.577C242.056 282.577 241.32 282.906 240.795 283.565C240.27 284.213 240.008 285.155 240.008 286.391C240.008 287.008 240.1 287.508 240.286 287.889C240.471 288.269 240.744 288.578 241.104 288.815C241.279 288.928 241.464 289.021 241.66 289.093C241.866 289.155 242.062 289.206 242.247 289.247C242.432 289.289 242.597 289.32 242.741 289.34C242.895 289.35 243.019 289.356 243.112 289.356H245.721V286.808C245.721 286.087 245.67 285.485 245.567 285.001C245.464 284.507 245.33 284.105 245.165 283.796C245.001 283.488 244.815 283.251 244.609 283.086C244.414 282.911 244.213 282.788 244.007 282.716C243.812 282.644 243.621 282.602 243.436 282.592C243.261 282.582 243.117 282.577 243.003 282.577Z" fill="#334155"/>
<path d="M231.329 279.874C231.35 279.936 231.391 280.106 231.453 280.384C231.514 280.651 231.586 280.986 231.669 281.387C231.762 281.789 231.849 282.231 231.931 282.715C232.024 283.199 232.106 283.688 232.178 284.182C232.261 284.666 232.328 285.14 232.379 285.603C232.431 286.056 232.456 286.452 232.456 286.792C232.456 287.811 232.287 288.696 231.947 289.448C231.607 290.199 231.164 290.817 230.619 291.301C230.083 291.785 229.476 292.145 228.797 292.382C228.117 292.619 227.438 292.737 226.758 292.737H219.887V289.355H226.866C227 289.355 227.196 289.335 227.453 289.294C227.721 289.252 227.983 289.149 228.241 288.985C228.498 288.81 228.719 288.552 228.905 288.213C229.1 287.873 229.198 287.399 229.198 286.792C229.198 286.565 229.178 286.282 229.136 285.943C229.095 285.603 229.044 285.237 228.982 284.846C228.92 284.455 228.848 284.054 228.766 283.642C228.683 283.23 228.601 282.844 228.519 282.484C228.447 282.123 228.375 281.799 228.303 281.511C228.23 281.223 228.174 281.001 228.133 280.847L231.329 279.874ZM229.445 300.906L227.005 298.435L229.414 295.934L231.916 298.435L229.445 300.906ZM223.562 300.875L221.122 298.404L223.531 295.903L226.033 298.404L223.562 300.875Z" fill="#334155"/>
<path d="M220.414 292.737H220.089C219.636 292.737 219.209 292.701 218.808 292.629C218.406 292.557 218 292.351 217.588 292.011C217.526 293.391 217.269 294.637 216.816 295.748C216.373 296.86 215.75 297.807 214.947 298.59C214.154 299.372 213.197 299.974 212.075 300.396C210.953 300.818 209.682 301.029 208.261 301.029H206.13V297.648H208.261C209.29 297.648 210.176 297.54 210.917 297.323C211.668 297.107 212.286 296.762 212.77 296.289C213.254 295.826 213.614 295.213 213.851 294.451C214.088 293.7 214.206 292.784 214.206 291.703V282.067H217.588V286.916C217.588 287.441 217.696 287.863 217.912 288.182C218.138 288.501 218.396 288.748 218.684 288.923C218.972 289.098 219.25 289.216 219.518 289.278C219.796 289.33 219.986 289.355 220.089 289.355H220.414V292.737Z" fill="#334155"/>
<path d="M188.961 290.097C189.064 290.097 189.218 290.086 189.424 290.066C189.64 290.035 189.857 289.922 190.073 289.726C190.289 289.52 190.479 289.191 190.644 288.738C190.809 288.274 190.891 287.605 190.891 286.73C190.891 286.627 190.876 286.463 190.845 286.236C190.814 285.999 190.757 285.747 190.675 285.479C190.593 285.201 190.479 284.918 190.335 284.63C190.191 284.332 190.006 284.064 189.779 283.827C189.553 283.58 189.275 283.379 188.946 283.225C188.616 283.07 188.23 282.993 187.787 282.993C187.376 282.993 187.02 283.081 186.722 283.256C186.423 283.42 186.161 283.647 185.934 283.935C185.708 284.213 185.512 284.537 185.348 284.908C185.193 285.268 185.049 285.644 184.915 286.035C184.792 286.427 184.673 286.818 184.56 287.209C184.457 287.6 184.349 287.96 184.236 288.29C184.637 288.516 185.054 288.738 185.487 288.954C185.919 289.17 186.341 289.366 186.753 289.541C187.175 289.705 187.571 289.839 187.942 289.942C188.323 290.045 188.662 290.097 188.961 290.097ZM187.787 279.627C188.837 279.627 189.749 279.823 190.521 280.214C191.293 280.595 191.936 281.115 192.451 281.773C192.966 282.422 193.346 283.179 193.594 284.043C193.851 284.898 193.98 285.793 193.98 286.73C193.98 287.77 193.887 288.66 193.702 289.402C193.527 290.133 193.295 290.75 193.007 291.255C192.718 291.749 192.389 292.145 192.018 292.444C191.658 292.732 191.293 292.953 190.922 293.108C190.551 293.262 190.191 293.36 189.841 293.401C189.501 293.453 189.208 293.478 188.961 293.478C188.457 293.478 187.973 293.427 187.509 293.324C187.046 293.231 186.573 293.087 186.089 292.892C185.615 292.706 185.116 292.48 184.591 292.212C184.066 291.944 183.489 291.641 182.861 291.301C182.419 291.795 181.93 292.161 181.394 292.397C180.859 292.624 180.288 292.737 179.68 292.737H177.302L177.271 289.355H179.557C179.825 289.355 180.056 289.273 180.252 289.108C180.447 288.933 180.622 288.702 180.777 288.413C180.931 288.125 181.07 287.785 181.194 287.394C181.328 287.003 181.456 286.581 181.58 286.128C181.714 285.644 181.863 285.15 182.028 284.646C182.192 284.141 182.388 283.647 182.614 283.163C182.841 282.679 183.109 282.226 183.417 281.804C183.726 281.372 184.086 280.996 184.498 280.677C184.91 280.348 185.384 280.09 185.919 279.905C186.465 279.72 187.087 279.627 187.787 279.627Z" fill="#334155"/>
<path d="M163.874 297.648C165.47 297.648 166.777 297.535 167.796 297.308C168.816 297.082 169.619 296.726 170.205 296.243C170.442 296.047 170.648 295.836 170.823 295.61C171.008 295.393 171.158 295.141 171.271 294.853C171.394 294.575 171.487 294.261 171.549 293.911C171.621 293.571 171.662 293.18 171.672 292.737H169.063C168.311 292.737 167.549 292.634 166.777 292.428C166.016 292.212 165.321 291.857 164.693 291.363C164.075 290.869 163.565 290.215 163.164 289.402C162.773 288.589 162.577 287.585 162.577 286.391C162.577 285.691 162.634 285.063 162.747 284.507C162.871 283.951 163.025 283.457 163.21 283.024C163.396 282.582 163.601 282.201 163.828 281.882C164.054 281.563 164.276 281.285 164.492 281.048C165.079 280.461 165.748 280.008 166.499 279.689C167.261 279.36 168.08 279.195 168.955 279.195C169.716 279.195 170.427 279.313 171.086 279.55C171.755 279.787 172.352 280.142 172.877 280.615C173.587 281.285 174.122 282.129 174.483 283.148C174.853 284.167 175.039 285.387 175.039 286.808V289.356H177.865V292.737H175.039C175.018 294.158 174.781 295.357 174.328 296.335C173.886 297.313 173.217 298.163 172.321 298.883C171.858 299.243 171.348 299.557 170.792 299.825C170.236 300.103 169.613 300.33 168.924 300.505C168.234 300.68 167.472 300.808 166.638 300.891C165.815 300.983 164.893 301.03 163.874 301.03V297.648ZM168.955 282.577C168.008 282.577 167.271 282.906 166.746 283.565C166.221 284.213 165.959 285.155 165.959 286.391C165.959 287.008 166.052 287.508 166.237 287.889C166.422 288.269 166.695 288.578 167.055 288.815C167.23 288.928 167.416 289.021 167.611 289.093C167.817 289.155 168.013 289.206 168.198 289.247C168.383 289.289 168.548 289.32 168.692 289.34C168.847 289.35 168.97 289.356 169.063 289.356H171.672V286.808C171.672 286.087 171.621 285.485 171.518 285.001C171.415 284.507 171.281 284.105 171.116 283.796C170.952 283.488 170.766 283.251 170.561 283.086C170.365 282.911 170.164 282.788 169.958 282.716C169.763 282.644 169.572 282.602 169.387 282.592C169.212 282.582 169.068 282.577 168.955 282.577Z" fill="#334155"/>
<path d="M159.675 286.653C159.614 286.694 159.341 286.874 158.857 287.193C158.373 287.502 157.73 287.883 156.927 288.336C156.124 288.789 155.187 289.273 154.116 289.787C153.046 290.302 151.898 290.781 150.673 291.224C149.448 291.656 148.166 292.016 146.828 292.304C145.5 292.593 144.172 292.737 142.844 292.737H138.396V289.355H142.844C143.564 289.355 144.311 289.304 145.083 289.201C145.855 289.098 146.622 288.959 147.384 288.784C148.156 288.598 148.918 288.387 149.669 288.151C150.421 287.914 151.141 287.662 151.831 287.394C152.531 287.126 153.185 286.853 153.792 286.576C154.399 286.287 154.945 286.004 155.429 285.726L147.723 283.024C147.26 282.89 146.848 282.823 146.488 282.823C146.128 282.813 145.809 282.875 145.531 283.008C145.253 283.142 145.011 283.353 144.805 283.642C144.599 283.93 144.414 284.295 144.249 284.738L141.13 283.796C141.346 283.106 141.639 282.447 142.01 281.819C142.38 281.191 142.839 280.666 143.384 280.244C143.93 279.812 144.568 279.524 145.299 279.38C145.525 279.338 145.762 279.318 146.009 279.318C146.555 279.318 147.152 279.421 147.801 279.627C148.377 279.812 148.897 279.987 149.36 280.152C149.834 280.306 150.297 280.471 150.75 280.646C151.203 280.811 151.676 280.991 152.171 281.186C152.675 281.372 153.252 281.588 153.9 281.835C154.559 282.082 155.321 282.37 156.185 282.7C157.05 283.019 158.075 283.389 159.258 283.811L159.675 286.653ZM146.612 298.033L149.175 295.439L151.8 298.064L149.206 300.659L146.612 298.033Z" fill="#334155"/>
<path d="M125.092 297.648C126.688 297.648 127.995 297.535 129.014 297.308C130.033 297.082 130.836 296.726 131.423 296.243C131.66 296.047 131.866 295.836 132.041 295.61C132.226 295.393 132.375 295.141 132.489 294.853C132.612 294.575 132.705 294.261 132.767 293.911C132.839 293.571 132.88 293.18 132.89 292.737H130.28C129.529 292.737 128.767 292.634 127.995 292.428C127.233 292.212 126.538 291.857 125.91 291.363C125.293 290.869 124.783 290.215 124.382 289.402C123.991 288.589 123.795 287.585 123.795 286.391C123.795 285.691 123.852 285.063 123.965 284.507C124.088 283.951 124.243 283.457 124.428 283.024C124.613 282.582 124.819 282.201 125.046 281.882C125.272 281.563 125.494 281.285 125.71 281.048C126.297 280.461 126.966 280.008 127.717 279.689C128.479 279.36 129.297 279.195 130.172 279.195C130.934 279.195 131.645 279.313 132.303 279.55C132.973 279.787 133.57 280.142 134.095 280.615C134.805 281.285 135.34 282.129 135.701 283.148C136.071 284.167 136.256 285.387 136.256 286.808V289.356H139.082V292.737H136.256C136.236 294.158 135.999 295.357 135.546 296.335C135.104 297.313 134.434 298.163 133.539 298.883C133.075 299.243 132.566 299.557 132.01 299.825C131.454 300.103 130.831 300.33 130.142 300.505C129.452 300.68 128.69 300.808 127.856 300.891C127.033 300.983 126.111 301.03 125.092 301.03V297.648ZM130.172 282.577C129.225 282.577 128.489 282.906 127.964 283.565C127.439 284.213 127.177 285.155 127.177 286.391C127.177 287.008 127.269 287.508 127.455 287.889C127.64 288.269 127.913 288.578 128.273 288.815C128.448 288.928 128.633 289.021 128.829 289.093C129.035 289.155 129.23 289.206 129.416 289.247C129.601 289.289 129.766 289.32 129.91 289.34C130.064 289.35 130.188 289.356 130.28 289.356H132.89V286.808C132.89 286.087 132.839 285.485 132.736 285.001C132.633 284.507 132.499 284.105 132.334 283.796C132.17 283.488 131.984 283.251 131.778 283.086C131.583 282.911 131.382 282.788 131.176 282.716C130.981 282.644 130.79 282.602 130.605 282.592C130.43 282.582 130.286 282.577 130.172 282.577Z" fill="#334155"/>
<path d="M113.404 292.876C112.776 292.876 112.164 292.845 111.567 292.783C111.268 292.753 110.944 292.711 110.594 292.66C110.244 292.608 109.884 292.536 109.513 292.444C109.153 292.351 108.787 292.238 108.417 292.104C108.056 291.96 107.711 291.795 107.382 291.61L105.915 290.776L107.598 287.842L109.065 288.676C109.415 288.882 109.842 289.047 110.347 289.17C110.862 289.294 111.407 289.381 111.984 289.433C112.457 289.474 112.936 289.494 113.42 289.494C113.523 289.494 113.744 289.494 114.084 289.494C114.424 289.484 114.84 289.443 115.335 289.371C115.993 289.268 116.482 289.139 116.802 288.985C117.131 288.82 117.321 288.666 117.373 288.522C117.404 288.46 117.419 288.383 117.419 288.29C117.419 288.156 117.383 287.955 117.311 287.688C117.239 287.42 117.018 287.008 116.647 286.452C115.659 284.96 114.856 283.75 114.238 282.823C113.621 281.887 113.137 281.156 112.787 280.631C112.437 280.106 112.2 279.745 112.076 279.55C111.953 279.354 111.886 279.251 111.876 279.241L110.949 277.82L113.775 275.967L114.701 277.388L114.902 277.681C115.026 277.877 115.263 278.237 115.613 278.762C115.963 279.287 116.446 280.018 117.064 280.955C117.682 281.892 118.485 283.101 119.473 284.584C120.06 285.469 120.456 286.324 120.662 287.147C120.755 287.538 120.801 287.919 120.801 288.29C120.801 288.856 120.688 289.391 120.461 289.896C120.101 290.719 119.488 291.368 118.624 291.842C117.872 292.264 116.941 292.552 115.829 292.706C115.438 292.768 115.041 292.809 114.64 292.83C114.238 292.861 113.826 292.876 113.404 292.876Z" fill="#334155"/>
<path d="M91.8319 279.874C91.8525 279.936 91.8936 280.105 91.9554 280.383C92.0172 280.651 92.0892 280.986 92.1716 281.387C92.2643 281.789 92.3518 282.231 92.4341 282.715C92.5268 283.199 92.6091 283.688 92.6812 284.182C92.7635 284.666 92.8305 285.139 92.8819 285.603C92.9334 286.056 92.9591 286.452 92.9591 286.792C92.9591 287.811 92.7893 288.696 92.4495 289.448C92.1098 290.199 91.6672 290.817 91.1216 291.301C90.5862 291.785 89.9789 292.145 89.2994 292.382C88.62 292.618 87.9405 292.737 87.2611 292.737H83.0918V289.355H87.3692C87.503 289.355 87.6986 289.335 87.956 289.293C88.2236 289.252 88.4861 289.149 88.7435 288.985C89.0009 288.809 89.2222 288.552 89.4075 288.212C89.6031 287.873 89.7009 287.399 89.7009 286.792C89.7009 286.565 89.6803 286.282 89.6391 285.942C89.598 285.603 89.5465 285.237 89.4847 284.846C89.423 284.455 89.3509 284.053 89.2685 283.642C89.1862 283.23 89.1038 282.844 89.0215 282.483C88.9494 282.123 88.8773 281.799 88.8053 281.511C88.7332 281.222 88.6766 281.001 88.6354 280.847L91.8319 279.874ZM86.5971 273.558L89.1604 270.964L91.7856 273.589L89.1913 276.183L86.5971 273.558Z" fill="#334155"/>
<path d="M83.813 289.355V292.737H81.3423C80.4364 292.737 79.6231 292.613 78.9025 292.366C78.1819 292.109 77.5899 291.733 77.1267 291.239C76.5708 291.723 75.8913 292.094 75.0884 292.351C74.2957 292.608 73.3949 292.737 72.386 292.737H66.8115V289.355H72.386C73.0655 289.355 73.6059 289.288 74.0074 289.155C74.4192 289.021 74.728 288.856 74.9339 288.66C75.1398 288.454 75.2737 288.233 75.3354 287.996C75.3972 287.749 75.4281 287.513 75.4281 287.286V282.051H78.7944V287.178C78.7944 287.528 78.8459 287.827 78.9488 288.074C79.0621 288.31 79.201 288.511 79.3657 288.676C79.5305 288.83 79.7106 288.954 79.9062 289.046C80.1018 289.139 80.2923 289.211 80.4776 289.263C80.6732 289.304 80.8482 289.33 81.0026 289.34C81.157 289.35 81.2702 289.355 81.3423 289.355H83.813ZM77.0649 300.998L74.6251 298.528L77.034 296.026L79.5356 298.528L77.0649 300.998ZM71.1816 300.968L68.7418 298.497L71.1507 295.995L73.6523 298.497L71.1816 300.968Z" fill="#334155"/>
<path d="M37.3779 289.355H39.3236C39.9825 289.355 40.5126 289.299 40.9141 289.186C41.3259 289.072 41.645 288.908 41.8715 288.691C42.098 288.465 42.2473 288.192 42.3193 287.873C42.4017 287.554 42.4429 287.194 42.4429 286.792V282.067H45.8246V286.715C45.8246 287.631 46.0408 288.3 46.4732 288.722C46.9158 289.134 47.6159 289.345 48.5733 289.355C48.738 289.345 48.9439 289.314 49.1909 289.263C49.4483 289.201 49.6902 289.083 49.9167 288.908C50.1535 288.722 50.3542 288.465 50.5189 288.136C50.6837 287.796 50.766 287.348 50.766 286.792V282.067H54.1323V286.715C54.1323 287.641 54.3537 288.316 54.7963 288.738C55.239 289.15 55.9493 289.355 56.9273 289.355C57.2053 289.355 57.4781 289.314 57.7457 289.232C58.0134 289.139 58.2553 288.995 58.4715 288.8C58.6877 288.604 58.8627 288.352 58.9965 288.043C59.1406 287.724 59.223 287.333 59.2436 286.869V282.067H62.6253V286.869C62.6459 287.744 62.9085 288.377 63.4129 288.769C63.9173 289.16 64.6843 289.355 65.7137 289.355H67.3197V292.737H65.7137C64.6637 292.737 63.7372 292.609 62.9342 292.351C62.1415 292.084 61.4724 291.682 60.9267 291.147C60.4326 291.682 59.8304 292.084 59.1201 292.351C58.42 292.609 57.6891 292.737 56.9273 292.737C55.9596 292.737 55.1103 292.609 54.3794 292.351C53.6485 292.084 53.0051 291.687 52.4492 291.162C51.9242 291.656 51.3219 292.042 50.6425 292.32C49.9733 292.588 49.3042 292.727 48.635 292.737H48.5269C47.5901 292.737 46.7614 292.603 46.0408 292.336C45.3202 292.058 44.6974 291.687 44.1723 291.224C43.5856 291.728 42.8958 292.109 42.1031 292.367C41.3105 292.614 40.3839 292.737 39.3236 292.737H37.3779V289.355Z" fill="#334155"/>
<path d="M38.0066 289.355V292.737H36.8639C36.4933 292.737 36.1124 292.706 35.7212 292.644C35.33 292.582 34.944 292.49 34.5631 292.366C34.1925 292.243 33.8373 292.088 33.4976 291.903C33.1579 291.707 32.849 291.471 32.5711 291.193C31.449 292.212 29.8688 292.727 27.8304 292.737H11.3077C10.5562 292.737 9.84583 292.608 9.17669 292.351C8.50754 292.093 7.91045 291.723 7.38543 291.239C7.17954 291.043 6.96335 290.807 6.73687 290.529C6.52069 290.251 6.32509 289.926 6.15008 289.556C5.97508 289.175 5.83095 288.748 5.71771 288.274C5.60447 287.79 5.54785 287.25 5.54785 286.653C5.54785 286.128 5.59932 285.556 5.70227 284.939C5.81551 284.311 5.9339 283.719 6.05743 283.163C6.19126 282.597 6.31994 282.113 6.44348 281.711C6.56701 281.3 6.64422 281.047 6.67511 280.955L8.28106 281.464L9.90245 281.974C9.83039 282.19 9.73774 282.494 9.6245 282.885C9.52155 283.266 9.41861 283.683 9.31566 284.136C9.21272 284.578 9.12007 285.026 9.03771 285.479C8.96565 285.932 8.92962 286.323 8.92962 286.653C8.92962 287.281 9.02742 287.775 9.22301 288.135C9.4289 288.496 9.66053 288.768 9.91789 288.954C10.1856 289.129 10.4532 289.242 10.7209 289.293C10.9885 289.335 11.1944 289.355 11.3385 289.355H27.7223C28.5047 289.355 29.107 289.273 29.529 289.108C29.9614 288.943 30.2754 288.748 30.471 288.521C30.6666 288.284 30.7798 288.043 30.8107 287.795C30.8416 287.548 30.857 287.343 30.857 287.178V282.051H34.2388V287.101C34.2388 287.626 34.3469 288.037 34.5631 288.336C34.7793 288.635 35.0315 288.861 35.3197 289.015C35.608 289.16 35.8962 289.252 36.1845 289.293C36.483 289.335 36.7095 289.355 36.8639 289.355H38.0066ZM23.4141 280.661L20.9743 278.191L23.3832 275.689L25.8848 278.191L23.4141 280.661ZM17.2064 280.63L14.7666 278.16L17.1601 275.658L19.6617 278.16L17.2064 280.63Z" fill="#334155"/>
</svg>
