<svg width="100" height="100" viewBox="0 0 100 100" fill="none" xmlns="http://www.w3.org/2000/svg">
<rect width="100" height="100" rx="11.4286" fill="#DCFCE7"/>
<path opacity="0.4" d="M75 38.5752V53.5752C75 57.3252 73.75 60.4502 71.55 62.6502C69.375 64.8252 66.25 66.0752 62.5 66.0752V71.4002C62.5 73.4002 60.275 74.6003 58.625 73.5003L47.5 66.0752H42.2C42.4 65.3252 42.5 64.5502 42.5 63.7502C42.5 61.2002 41.525 58.8503 39.925 57.0753C38.125 55.0253 35.45 53.7502 32.5 53.7502C29.7 53.7502 27.15 54.9003 25.325 56.7753C25.1 55.7753 25 54.7002 25 53.5752V38.5752C25 31.0752 30 26.0752 37.5 26.0752H62.5C70 26.0752 75 31.0752 75 38.5752Z" fill="#15803D"/>
<path d="M58.75 48.125H41.25C40.225 48.125 39.375 47.275 39.375 46.25C39.375 45.225 40.225 44.375 41.25 44.375H58.75C59.775 44.375 60.625 45.225 60.625 46.25C60.625 47.275 59.775 48.125 58.75 48.125Z" fill="#15803D"/>
<path d="M32.5 53.75C26.975 53.75 22.5 58.225 22.5 63.75C22.5 65.625 23.025 67.4 23.95 68.9C25.675 71.8 28.85 73.75 32.5 73.75C36.15 73.75 39.325 71.8 41.05 68.9C41.975 67.4 42.5 65.625 42.5 63.75C42.5 58.225 38.025 53.75 32.5 53.75ZM37.425 62.925L32.1 67.85C31.75 68.175 31.275 68.3501 30.825 68.3501C30.35 68.3501 29.875 68.175 29.5 67.8L27.025 65.325C26.3 64.6 26.3 63.4 27.025 62.675C27.75 61.95 28.95 61.95 29.675 62.675L30.875 63.875L34.875 60.175C35.625 59.475 36.825 59.525 37.525 60.275C38.225 61.025 38.175 62.225 37.425 62.925Z" fill="#15803D"/>
</svg>
