<svg width="24" height="24" viewBox="0 0 24 24" fill="none" xmlns="http://www.w3.org/2000/svg">
<path d="M8.90961 20.6705C8.71961 20.6705 8.52961 20.6005 8.37961 20.4505C8.08961 20.1605 8.08961 19.6805 8.37961 19.3905L14.8996 12.8705C15.3796 12.3905 15.3796 11.6105 14.8996 11.1305L8.37961 4.61051C8.08961 4.32051 8.08961 3.84051 8.37961 3.55051C8.66961 3.26051 9.14961 3.26051 9.43961 3.55051L15.9596 10.0705C16.4696 10.5805 16.7596 11.2705 16.7596 12.0005C16.7596 12.7305 16.4796 13.4205 15.9596 13.9305L9.43961 20.4505C9.28961 20.5905 9.09961 20.6705 8.90961 20.6705Z" fill="#020617"/>
</svg>
