<svg width="48" height="48" viewBox="0 0 48 48" fill="none" xmlns="http://www.w3.org/2000/svg">
<path opacity="0.4" d="M35.9002 15.42L35.6202 15.26L32.8402 13.66L27.1002 10.34C25.3402 9.31995 22.6602 9.31995 20.9002 10.34L15.1602 13.66L12.3802 15.28L12.0202 15.48C8.4402 17.88 8.2002 18.32 8.2002 22.18V31.4C8.2002 35.26 8.4402 35.7 12.1002 38.16L20.9002 43.24C21.7802 43.76 22.8802 44 24.0002 44C25.1002 44 26.2202 43.76 27.1002 43.24L35.9802 38.0999C39.5602 35.6999 39.8002 35.26 39.8002 31.4V22.18C39.8002 18.32 39.5602 17.88 35.9002 15.42Z" fill="#FEC923"/>
<path d="M12.3799 15.28L15.1599 13.66L20.6399 10.5L20.8999 10.34C22.6599 9.32 25.3399 9.32 27.0999 10.34L27.3599 10.5L32.8399 13.66L35.6199 15.26V10.98C35.6199 6.48 33.1399 4 28.6399 4H19.3399C14.8399 4 12.3799 6.48 12.3799 10.98V15.28Z" fill="#FEC923"/>
<path d="M29.68 26.6801L28.44 28.2001C28.24 28.4201 28.1 28.8601 28.12 29.1601L28.24 31.1201C28.32 32.3201 27.46 32.9401 26.34 32.5001L24.52 31.7801C24.24 31.6801 23.76 31.6801 23.48 31.7801L21.66 32.5001C20.54 32.9401 19.68 32.3201 19.76 31.1201L19.88 29.1601C19.9 28.8601 19.76 28.4201 19.56 28.2001L18.32 26.6801C17.54 25.7601 17.88 24.7401 19.04 24.4401L20.94 23.9601C21.24 23.8801 21.6 23.6001 21.76 23.3401L22.82 21.7001C23.48 20.6801 24.52 20.6801 25.18 21.7001L26.24 23.3401C26.4 23.6001 26.76 23.8801 27.06 23.9601L28.96 24.4401C30.12 24.7401 30.46 25.7601 29.68 26.6801Z" fill="#FEC923"/>
</svg>
