<svg width="18" height="18" viewBox="0 0 18 18" fill="none" xmlns="http://www.w3.org/2000/svg">
<path d="M16.5 17.0625H1.5C1.1925 17.0625 0.9375 16.8075 0.9375 16.5C0.9375 16.1925 1.1925 15.9375 1.5 15.9375H16.5C16.8075 15.9375 17.0625 16.1925 17.0625 16.5C17.0625 16.8075 16.8075 17.0625 16.5 17.0625Z" fill="#334155"/>
<path d="M2.25751 17.07C2.10751 17.07 1.96499 17.0099 1.85999 16.9049C1.75499 16.7999 1.69501 16.6575 1.69501 16.5075L1.6875 5.30247C1.6875 4.61997 2.03248 3.97495 2.60248 3.59245L5.60248 1.58996C6.29998 1.12496 7.20001 1.12496 7.89001 1.58996L10.89 3.59245C11.4675 3.97495 11.805 4.61247 11.805 5.30247L11.8125 16.4925C11.8125 16.8 11.565 17.055 11.25 17.055L2.25751 17.07ZM6.75 2.36248C6.57 2.36248 6.39 2.41495 6.2325 2.51995L3.2325 4.52249C2.97 4.69499 2.8125 4.98747 2.8125 5.30247L2.82001 15.945L10.695 15.93L10.6875 5.30247C10.6875 4.98747 10.53 4.69495 10.275 4.52995L7.27501 2.52746C7.11751 2.41496 6.93 2.36248 6.75 2.36248Z" fill="#334155"/>
<path d="M14.9854 17.07C14.6779 17.07 14.4229 16.815 14.4229 16.5075V13.5C14.4229 13.1925 14.6779 12.9375 14.9854 12.9375C15.2929 12.9375 15.5479 13.1925 15.5479 13.5V16.5075C15.5479 16.815 15.3004 17.07 14.9854 17.07Z" fill="#334155"/>
<path d="M15 14.0625C13.86 14.0625 12.9375 13.14 12.9375 12V10.5C12.9375 9.36 13.86 8.4375 15 8.4375C16.14 8.4375 17.0625 9.36 17.0625 10.5V12C17.0625 13.14 16.14 14.0625 15 14.0625ZM15 9.5625C14.4825 9.5625 14.0625 9.9825 14.0625 10.5V12C14.0625 12.5175 14.4825 12.9375 15 12.9375C15.5175 12.9375 15.9375 12.5175 15.9375 12V10.5C15.9375 9.9825 15.5175 9.5625 15 9.5625Z" fill="#334155"/>
<path d="M11.25 11.0625H2.25C1.9425 11.0625 1.6875 10.8075 1.6875 10.5C1.6875 10.1925 1.9425 9.9375 2.25 9.9375H11.25C11.5575 9.9375 11.8125 10.1925 11.8125 10.5C11.8125 10.8075 11.5575 11.0625 11.25 11.0625Z" fill="#334155"/>
<path d="M6.75 17.0625C6.4425 17.0625 6.1875 16.8075 6.1875 16.5V13.6875C6.1875 13.38 6.4425 13.125 6.75 13.125C7.0575 13.125 7.3125 13.38 7.3125 13.6875V16.5C7.3125 16.8075 7.0575 17.0625 6.75 17.0625Z" fill="#334155"/>
<path d="M6.75 8.4375C5.82 8.4375 5.0625 7.68 5.0625 6.75C5.0625 5.82 5.82 5.0625 6.75 5.0625C7.68 5.0625 8.4375 5.82 8.4375 6.75C8.4375 7.68 7.68 8.4375 6.75 8.4375ZM6.75 6.1875C6.4425 6.1875 6.1875 6.4425 6.1875 6.75C6.1875 7.0575 6.4425 7.3125 6.75 7.3125C7.0575 7.3125 7.3125 7.0575 7.3125 6.75C7.3125 6.4425 7.0575 6.1875 6.75 6.1875Z" fill="#334155"/>
</svg>
