<svg width="52" height="54" viewBox="0 0 52 54" fill="none" xmlns="http://www.w3.org/2000/svg">
<path opacity="0.4" d="M38.5158 4.43563C38.7518 4.64263 38.9808 4.85492 39.2083 5.07122C39.2826 5.14175 39.2826 5.14175 39.3585 5.2137C40.1635 5.98263 40.8895 6.7826 41.542 7.68503C41.5814 7.73948 41.6209 7.79393 41.6615 7.85003C44.3084 11.5555 45.5525 16.3067 45.0624 20.8271C45.054 20.9053 45.0455 20.9835 45.0368 21.064C45.029 21.1326 45.0212 21.2012 45.0131 21.2719C44.9679 21.8766 45.0183 22.2947 45.2982 22.8345C45.3304 22.8991 45.3626 22.9637 45.3958 23.0303C45.5022 23.2432 45.6104 23.455 45.7187 23.6669C45.794 23.8165 45.8692 23.9662 45.9443 24.116C46.1426 24.5106 46.3425 24.9044 46.5427 25.2981C46.7429 25.6924 46.9414 26.0876 47.1401 26.4827C47.7744 27.7423 48.4107 29.0007 49.0726 30.2461C49.4784 31.0109 49.8651 31.7852 50.2515 32.5599C50.3782 32.8138 50.5053 33.0674 50.6324 33.321C50.7132 33.4828 50.7941 33.6445 50.8749 33.8063C50.9128 33.882 50.9507 33.9576 50.9897 34.0355C51.2505 34.5592 51.2505 34.5592 51.2505 34.6633C48.94 34.6633 46.6296 34.6633 44.2492 34.6633C44.2492 37.8362 44.2492 41.0092 44.2492 44.2784C40.4293 44.2784 36.6094 44.2784 32.6737 44.2784C32.6737 47.2665 32.6737 50.2546 32.6737 53.3333C26.3586 53.3333 20.0434 53.3333 13.5369 53.3333C13.6303 44.8385 13.6303 44.8385 13.6773 42.1681C13.6805 41.3699 13.6805 41.3699 13.6806 40.5716C13.6808 40.2191 13.6871 39.8673 13.6975 39.515C13.8169 37.1863 13.8169 37.1863 12.8067 35.1827C12.3932 34.7551 11.9362 34.3873 11.4622 34.0293C11.1619 33.7903 10.9205 33.5307 10.6785 33.2342C10.4829 32.9944 10.2636 32.7848 10.0421 32.5687C9.89845 32.4285 9.75591 32.287 9.61621 32.1428C9.61621 32.112 9.61621 32.0812 9.61621 32.0495C15.8697 32.0495 22.1233 32.0495 28.5663 32.0495C28.5663 23.9168 28.5663 15.7841 28.5663 7.40497C23.3448 7.45118 23.3448 7.45118 18.0177 7.49832C12.4818 7.50517 12.4818 7.50517 9.89626 7.49832C9.98449 7.37957 10.0729 7.26093 10.1613 7.14234C10.2105 7.07626 10.2597 7.01017 10.3104 6.94209C10.6671 6.47634 11.0796 6.05632 11.4832 5.63132C11.5501 5.56045 11.5501 5.56045 11.6183 5.48815C17.8899 -1.11952 28.3616 -2.10941 38.5158 4.43563Z" fill="#027CF5"/>
<path d="M26.5117 29.9961H0V9.55176H26.5117V29.9961ZM9.05566 13.5674C8.84362 14.0445 8.63139 14.5218 8.42188 15C8.35856 15.1446 8.29481 15.29 8.23145 15.4346C8.19629 15.5148 8.16206 15.593 8.12793 15.6709C7.53682 17.0195 6.94381 18.3678 6.34473 19.7129C5.79328 20.9508 5.24422 22.1909 4.69922 23.4316C4.66078 23.5192 4.62325 23.6045 4.58594 23.6895C4.4775 23.9362 4.36904 24.1839 4.26074 24.4307C4.2269 24.5078 4.19398 24.5833 4.16113 24.6582C3.98178 25.0663 3.80289 25.4744 3.64062 25.8896C4.01513 25.8916 4.39014 25.8925 4.76465 25.8936C4.91695 25.8939 5.06938 25.895 5.22168 25.8955C5.44707 25.8967 5.67305 25.8979 5.89844 25.8984C6.00583 25.8986 6.00608 25.8982 6.11133 25.8984C6.24506 25.8994 6.37896 25.8994 6.5127 25.8994C6.81436 25.8888 6.81512 25.889 6.9082 25.7959C7.3324 24.8532 7.33235 24.8525 7.74805 23.9287C10.3408 23.8816 10.3415 23.8821 12.8828 23.8359C13.1626 24.6754 13.1627 24.6761 13.7227 25.7959C14.7383 25.8276 15.7242 25.8588 16.71 25.8896C16.8135 25.5791 16.8138 25.578 16.5703 25.0537C16.494 24.8937 16.4182 24.7331 16.3438 24.5723C16.3024 24.4824 16.2618 24.3948 16.2217 24.3076C16.0003 23.8273 15.7877 23.3434 15.5791 22.8574C15.5331 22.7498 15.488 22.6445 15.4434 22.54C13.7031 18.4351 13.7035 18.4343 11.9844 14.3203C11.8773 14.0644 11.7728 13.8158 11.6689 13.5674H9.05566ZM18.5771 25.7959H21.5645V13.5664H18.5771V25.7959ZM10.2695 17.8613C10.5606 18.0071 10.618 18.2956 10.7363 18.584C10.7627 18.647 10.7892 18.7104 10.8164 18.7754C10.8723 18.9093 10.9281 19.0436 10.9834 19.1777C11.0679 19.3826 11.1537 19.5876 11.2393 19.792C11.2934 19.922 11.3474 20.0526 11.4014 20.1826C11.4267 20.2434 11.4524 20.3045 11.4785 20.3672C11.5957 20.6521 11.6877 20.9216 11.7627 21.2217H8.86914C8.95318 20.8016 9.07971 20.46 9.25684 20.0762C9.28562 20.0128 9.31507 19.9491 9.34473 19.8838C9.4364 19.6822 9.52872 19.4805 9.62109 19.2793C9.68362 19.1422 9.74714 19.0044 9.80957 18.8672C9.9623 18.5319 10.1159 18.1962 10.2695 17.8613Z" fill="#027CF5"/>
<path d="M11.0312 25.8333C11.0519 25.8745 11.0725 25.9158 11.0938 25.9583C11.7125 25.9583 12.3312 25.9583 12.9688 25.9583C12.9997 26.0511 12.9997 26.0511 13.0312 26.1458C12.33 26.1458 11.6288 26.1458 10.9062 26.1458C10.9475 26.0426 10.9887 25.9395 11.0312 25.8333Z" fill="#027CF5"/>
</svg>
