<svg width="64" height="64" viewBox="0 0 64 64" fill="none" xmlns="http://www.w3.org/2000/svg">
<path opacity="0.4" d="M49.7865 5.33325H44.7198C38.9065 5.33325 35.8398 8.39992 35.8398 14.2133V19.2799C35.8398 25.0933 38.9065 28.1599 44.7198 28.1599H49.7865C55.5998 28.1599 58.6665 25.0933 58.6665 19.2799V14.2133C58.6665 8.39992 55.5998 5.33325 49.7865 5.33325Z" fill="#0C9F44"/>
<path opacity="0.4" d="M19.3063 35.8132H14.2397C8.39967 35.8132 5.33301 38.8799 5.33301 44.6932V49.7599C5.33301 55.5999 8.39967 58.6666 14.213 58.6666H19.2797C25.093 58.6666 28.1597 55.5999 28.1597 49.7866V44.7199C28.1863 38.8799 25.1197 35.8132 19.3063 35.8132Z" fill="#0C9F44"/>
<path d="M16.773 28.2133C23.0911 28.2133 28.213 23.0914 28.213 16.7733C28.213 10.4551 23.0911 5.33325 16.773 5.33325C10.4549 5.33325 5.33301 10.4551 5.33301 16.7733C5.33301 23.0914 10.4549 28.2133 16.773 28.2133Z" fill="#0C9F44"/>
<path d="M47.2271 58.6666C53.5452 58.6666 58.6671 53.5448 58.6671 47.2266C58.6671 40.9085 53.5452 35.7866 47.2271 35.7866C40.909 35.7866 35.7871 40.9085 35.7871 47.2266C35.7871 53.5448 40.909 58.6666 47.2271 58.6666Z" fill="#0C9F44"/>
</svg>
