<svg width="24" height="24" viewBox="0 0 24 24" fill="none" xmlns="http://www.w3.org/2000/svg">
<path fill-rule="evenodd" clip-rule="evenodd" d="M11.9938 13.4086L17.6481 19.0633C17.8366 19.2453 18.0891 19.3461 18.3511 19.3438C18.6132 19.3415 18.8639 19.2364 19.0492 19.0511C19.2345 18.8657 19.3397 18.615 19.3419 18.353C19.3442 18.0909 19.2435 17.8384 19.0614 17.6498L13.4071 11.9952L19.0614 6.3405C19.2435 6.15197 19.3442 5.89948 19.3419 5.63739C19.3397 5.3753 19.2345 5.12459 19.0492 4.93926C18.8639 4.75393 18.6132 4.6488 18.3511 4.64652C18.0891 4.64424 17.8366 4.745 17.6481 4.92708L11.9938 10.5818L6.33955 4.92708C6.15019 4.7495 5.89918 4.65256 5.63962 4.65677C5.38006 4.66099 5.13233 4.76603 4.94883 4.94967C4.76534 5.1333 4.66048 5.38113 4.65645 5.64071C4.65242 5.90029 4.74953 6.15125 4.92723 6.3405L10.5805 11.9952L4.92623 17.6498C4.83077 17.742 4.75463 17.8523 4.70224 17.9743C4.64986 18.0963 4.62228 18.2274 4.62113 18.3601C4.61998 18.4929 4.64527 18.6245 4.69552 18.7473C4.74578 18.8702 4.82 18.9818 4.91385 19.0756C5.00769 19.1695 5.11929 19.2437 5.24213 19.294C5.36496 19.3442 5.49658 19.3695 5.6293 19.3684C5.76201 19.3672 5.89317 19.3397 6.01511 19.2873C6.13706 19.2349 6.24735 19.1587 6.33955 19.0633L11.9938 13.4086Z" fill="black"/>
</svg>
