<svg width="64" height="64" viewBox="0 0 64 64" fill="none" xmlns="http://www.w3.org/2000/svg">
<path opacity="0.4" d="M48 54.6667H45.3333V54.0001C45.3333 51.0667 42.9333 48.6667 40 48.6667H34V42.5601C33.3333 42.6401 32.6667 42.6667 32 42.6667C31.3333 42.6667 30.6667 42.6401 30 42.5601V48.6667H24C21.0667 48.6667 18.6667 51.0667 18.6667 54.0001V54.6667H16C14.9067 54.6667 14 55.5734 14 56.6667C14 57.7601 14.9067 58.6667 16 58.6667H48C49.0933 58.6667 50 57.7601 50 56.6667C50 55.5734 49.0933 54.6667 48 54.6667Z" fill="#FFA61E"/>
<path opacity="0.4" d="M14.7201 31.0399C12.9601 30.3733 11.4134 29.2799 10.1867 28.0533C7.70674 25.3066 6.08008 22.0266 6.08008 18.1866C6.08008 14.3466 9.09341 11.3333 12.9334 11.3333H14.4267C13.7334 12.7466 13.3334 14.3199 13.3334 15.9999V23.9999C13.3334 26.5066 13.8134 28.8799 14.7201 31.0399Z" fill="#FFA61E"/>
<path opacity="0.4" d="M57.9203 18.1866C57.9203 22.0266 56.2936 25.3066 53.8136 28.0533C52.5869 29.2799 51.0403 30.3733 49.2803 31.0399C50.1869 28.8799 50.6669 26.5066 50.6669 23.9999V15.9999C50.6669 14.3199 50.2669 12.7466 49.5736 11.3333H51.0669C54.9069 11.3333 57.9203 14.3466 57.9203 18.1866Z" fill="#FFA61E"/>
<path d="M39.9997 5.33325H23.9997C18.1063 5.33325 13.333 10.1066 13.333 15.9999V23.9999C13.333 34.3199 21.6797 42.6666 31.9997 42.6666C42.3197 42.6666 50.6663 34.3199 50.6663 23.9999V15.9999C50.6663 10.1066 45.893 5.33325 39.9997 5.33325ZM39.573 22.5333L37.9197 24.5599C37.653 24.8533 37.4663 25.4399 37.493 25.8399L37.653 28.4533C37.7597 30.0533 36.613 30.8799 35.1197 30.2933L32.693 29.3333C32.3197 29.1999 31.6797 29.1999 31.3063 29.3333L28.8797 30.2933C27.3863 30.8799 26.2397 30.0533 26.3463 28.4533L26.5063 25.8399C26.533 25.4399 26.3463 24.8533 26.0797 24.5599L24.4263 22.5333C23.3863 21.3066 23.8397 19.9466 25.3863 19.5466L27.9197 18.9066C28.3197 18.7999 28.7997 18.4266 29.013 18.0799L30.4263 15.8933C31.3063 14.5333 32.693 14.5333 33.573 15.8933L34.9863 18.0799C35.1997 18.4266 35.6797 18.7999 36.0797 18.9066L38.613 19.5466C40.1597 19.9466 40.613 21.3066 39.573 22.5333Z" fill="#FFA61E"/>
<path opacity="0.4" d="M39.5733 22.5333L37.92 24.56C37.6533 24.8533 37.4666 25.44 37.4933 25.84L37.6533 28.4533C37.76 30.0533 36.6133 30.88 35.12 30.2933L32.6933 29.3333C32.32 29.2 31.68 29.2 31.3066 29.3333L28.88 30.2933C27.3866 30.88 26.24 30.0533 26.3466 28.4533L26.5066 25.84C26.5333 25.44 26.3466 24.8533 26.08 24.56L24.4266 22.5333C23.3866 21.3066 23.84 19.9466 25.3866 19.5466L27.92 18.9066C28.32 18.8 28.8 18.4266 29.0133 18.08L30.4266 15.8933C31.3066 14.5333 32.6933 14.5333 33.5733 15.8933L34.9866 18.08C35.2 18.4266 35.68 18.8 36.08 18.9066L38.6133 19.5466C40.16 19.9466 40.6133 21.3066 39.5733 22.5333Z" fill="#FFA61E"/>
</svg>
