<svg width="64" height="64" viewBox="0 0 64 64" fill="none" xmlns="http://www.w3.org/2000/svg">
<path d="M48.4607 15.4048L48.2183 13.3335L46.1617 13.6787C39.2058 14.8539 33.4582 19.3308 30.623 25.0417C28.357 20.3041 24.1151 16.334 18.6467 14.4022L17.6661 14.057L18.2574 18.5045L18.5842 18.6477C25.687 21.7988 29.7856 29.2689 28.1109 36.0191C26.8512 41.1019 22.3192 45.2556 16.5643 46.6035L16.0024 46.7357L16.5276 50.6727L17.2033 50.5258C23.2043 49.2147 28.0375 45.5788 30.5605 40.6943C32.8926 45.3621 37.2777 49.0972 42.7939 50.8453L45.2252 51.6166L45.3758 49.0715C45.7724 42.391 44.318 37.7195 41.0494 35.1891C40.8511 35.0385 40.6455 34.8916 40.4361 34.752C41.9382 34.1607 43.2346 33.3895 44.296 32.4493C48.0053 29.177 49.4083 23.4405 48.4644 15.4048H48.4607ZM41.6664 29.4745C39.1691 31.6781 35.1219 32.0821 32.7016 32.262C33.0432 25.8791 37.9534 20.0837 44.7184 18.0822C45.0562 23.558 44.0316 27.3885 41.6664 29.4745ZM33.2525 36.7609C34.7436 36.8381 37.0427 37.1098 38.6145 38.3255C40.37 39.6843 41.3212 42.2772 41.4534 46.0342C37.443 44.0363 34.4571 40.6612 33.2562 36.7609H33.2525Z" fill="#009E9A"/>
<path d="M55.7824 14.1515L55.6282 13.7328H51.5296L51.8858 14.6106C53.9021 19.5612 54.9708 25.3015 54.9708 31.2106C54.9708 38.3024 53.4871 44.9608 50.6775 50.466L50.4902 50.8443L50.9493 51.3952H54.4934L54.6623 51.0206C57.2441 45.2656 58.6654 38.2326 58.6654 31.2143C58.6654 25.2317 57.6665 19.3335 55.7788 14.1551L55.7824 14.1515Z" fill="#009E9A"/>
<path d="M9.02861 31.2106C9.02861 25.3015 10.0937 19.5612 12.1136 14.6106L12.4698 13.7328H8.37122L8.21697 14.1515C6.33293 19.3298 5.33398 25.228 5.33398 31.2106C5.33398 38.229 6.75528 45.262 9.33711 51.0169L9.50605 51.3915H13.0538L13.5128 50.837L13.3219 50.4624C10.5123 44.9571 9.02861 38.2987 9.02861 31.207V31.2106Z" fill="#009E9A"/>
</svg>
