<svg width="42" height="42" viewBox="0 0 42 42" fill="none" xmlns="http://www.w3.org/2000/svg">
<g style="mix-blend-mode:multiply">
<path d="M28.5686 31.4508C29.9882 28.3494 33.1321 26.221 36.7045 25.938C37.996 25.8356 39.0406 24.9027 39.2526 23.6989L39.7842 20.6806C32.727 19.7005 26.0437 23.3807 23.3249 29.3012C22.589 30.9037 23.6565 32.7306 25.4869 33.0162C26.7732 33.2168 28.0531 32.5779 28.569 31.4508H28.5686Z" fill="#27AAE1"/>
</g>
<g style="mix-blend-mode:multiply">
<path d="M23.098 30.5966C22.8174 27.2303 20.5712 24.2608 17.2867 22.9085C16.0991 22.4196 15.4303 21.2191 15.6422 20.0157L16.1738 16.9974C23.1896 18.2126 28.2542 23.725 28.7982 30.1545C28.9455 31.8948 27.3087 33.2997 25.4788 33.0144C24.1925 32.8138 23.2 31.8204 23.098 30.5969V30.5966Z" fill="#2BB673"/>
</g>
<g style="mix-blend-mode:multiply">
<path d="M14.5899 31.4508C13.1703 28.3494 10.0264 26.221 6.45404 25.938C5.1625 25.8356 4.11786 24.9027 3.90588 23.6989L3.37433 20.6806C10.4315 19.7005 17.1148 23.3807 19.8336 29.3012C20.5695 30.9037 19.502 32.7306 17.6717 33.0162C16.3853 33.2168 15.1054 32.5779 14.5895 31.4508H14.5899Z" fill="#FBB040"/>
</g>
<g style="mix-blend-mode:multiply">
<path d="M20.0695 30.5966C20.3501 27.2303 22.5964 24.2608 25.8808 22.9085C27.0684 22.4196 27.7373 21.2191 27.5253 20.0157L26.9937 16.9974C19.9779 18.2126 14.9133 23.725 14.3693 30.1545C14.222 31.8948 15.8588 33.2997 17.6887 33.0144C18.9751 32.8138 19.9675 31.8204 20.0695 30.5969V30.5966Z" fill="#D7DF23"/>
</g>
<g style="mix-blend-mode:multiply">
<path d="M6.88921 19.5155C8.49829 19.5155 9.80272 18.2878 9.80272 16.7734C9.80272 15.259 8.49829 14.0314 6.88921 14.0314C5.28013 14.0314 3.97571 15.259 3.97571 16.7734C3.97571 18.2878 5.28013 19.5155 6.88921 19.5155Z" fill="#FBB040"/>
</g>
<g style="mix-blend-mode:multiply">
<path d="M26.3037 14.4306C27.9128 14.4306 29.2172 13.203 29.2172 11.6886C29.2172 10.1742 27.9128 8.94653 26.3037 8.94653C24.6946 8.94653 23.3902 10.1742 23.3902 11.6886C23.3902 13.203 24.6946 14.4306 26.3037 14.4306Z" fill="#D7DF23"/>
</g>
<g style="mix-blend-mode:multiply">
<path d="M16.0178 14.72C17.6268 14.72 18.9313 13.4924 18.9313 11.978C18.9313 10.4636 17.6268 9.23596 16.0178 9.23596C14.4087 9.23596 13.1042 10.4636 13.1042 11.978C13.1042 13.4924 14.4087 14.72 16.0178 14.72Z" fill="#2BB673"/>
</g>
<g style="mix-blend-mode:multiply">
<path d="M36.2974 19.8106C37.9065 19.8106 39.2109 18.583 39.2109 17.0686C39.2109 15.5542 37.9065 14.3265 36.2974 14.3265C34.6883 14.3265 33.3839 15.5542 33.3839 17.0686C33.3839 18.583 34.6883 19.8106 36.2974 19.8106Z" fill="#27AAE1"/>
</g>
</svg>
