<svg width="45" height="16" viewBox="0 0 45 16" fill="none" xmlns="http://www.w3.org/2000/svg">
<path d="M36.3311 8.64256H36.5404C36.9766 8.64256 37.295 8.6382 37.4957 8.62947C37.234 8.24563 37.1031 7.8487 37.1031 7.43868C37.1031 7.34272 37.1206 7.19878 37.1555 7.00685C37.2689 6.44853 37.4782 5.93383 37.7836 5.46275C37.6702 5.43658 37.5349 5.40168 37.3779 5.35806L38.0976 3.55225C39.8162 4.07567 41.1597 4.57729 42.128 5.05709C43.0963 5.52818 43.7768 5.9949 44.1693 6.45726C44.5619 6.91962 44.7582 7.42123 44.7582 7.96211C44.7582 8.29361 44.684 8.70362 44.5357 9.19215C44.3962 9.64579 44.0908 9.98602 43.6198 10.2128C43.1487 10.4397 42.586 10.5531 41.9317 10.5531C41.2076 10.5531 40.5054 10.4353 39.8249 10.1997C39.0311 10.4615 37.9362 10.5923 36.5404 10.5923H36.3311V8.64256ZM38.5164 7.17697C38.5164 7.59571 38.9002 7.97955 39.6679 8.3285C40.392 8.09296 40.754 7.73093 40.754 7.2424C40.754 7.0243 40.6929 6.81929 40.5708 6.62737C40.4487 6.42672 40.2873 6.27842 40.0866 6.18246L39.7726 6.07777C39.7464 6.06905 39.7071 6.06469 39.6548 6.06469C39.3756 6.06469 39.1139 6.1781 38.8697 6.40491C38.6341 6.63173 38.5164 6.88908 38.5164 7.17697ZM41.5522 8.82576C41.7616 8.85193 41.9579 8.86501 42.1411 8.86501C42.4551 8.86501 42.7125 8.83012 42.9131 8.76033C43.1225 8.68182 43.2534 8.56841 43.3057 8.4201C43.3319 8.35031 43.345 8.28925 43.345 8.2369C43.345 7.83561 42.887 7.40815 41.971 6.95451C41.9797 7.13771 41.971 7.34708 41.9448 7.58262C41.8663 8.07115 41.7354 8.48553 41.5522 8.82576Z" fill="#0476D9"/>
<path d="M28.9269 15.7228C28.7263 13.2453 28.626 11.3435 28.626 10.0175C28.626 9.58127 28.6303 9.26722 28.6391 9.0753C28.6565 8.57804 28.8135 8.17239 29.1101 7.85833C29.4068 7.53555 29.7819 7.37416 30.2355 7.37416C30.3053 7.37416 30.41 7.38289 30.5496 7.40034C30.8985 6.65882 31.3042 6.06996 31.7665 5.63377C32.2289 5.19759 32.7043 4.97949 33.1929 4.97949C33.7337 4.97949 34.1699 5.15397 34.5014 5.50292C34.8417 5.85187 35.1295 6.36221 35.3651 7.03394C35.5657 7.63588 35.7358 8.05462 35.8754 8.29016C36.015 8.5257 36.1807 8.64347 36.3727 8.64347H36.4512L36.5559 9.62489L36.4512 10.5932H36.3727C36.1022 10.5932 35.8492 10.5234 35.6137 10.3839C35.3869 10.2356 35.1906 10.0305 35.0249 9.76883C34.9638 9.91714 34.8766 10.0567 34.7631 10.1876C34.6585 10.3097 34.5407 10.4057 34.4098 10.4755C34.2092 10.5976 33.9824 10.6587 33.7294 10.6587C33.3979 10.6587 32.966 10.5583 32.4339 10.3577C31.9017 10.1483 31.2038 9.81681 30.3402 9.36318C30.3053 9.34573 30.2791 9.33701 30.2617 9.33701C30.2006 9.33701 30.1701 9.37627 30.1701 9.45478C30.1526 10.4929 30.253 12.1897 30.4711 14.5451C30.4798 14.7196 30.4929 14.8766 30.5103 15.0162C30.5278 15.1558 30.5365 15.2692 30.5365 15.3564L28.9269 15.7228ZM31.8581 8.05462C32.2681 8.32505 32.6476 8.53006 32.9966 8.66964C33.3455 8.80922 33.6291 8.89646 33.8471 8.93135C34.074 8.96625 34.2135 8.97497 34.2659 8.95753C34.2746 8.90518 34.279 8.82231 34.279 8.7089C34.279 8.43846 34.2354 8.15058 34.1481 7.84525C34.0609 7.53119 33.93 7.26948 33.7555 7.06011C33.5811 6.84201 33.3761 6.73297 33.1405 6.73297C32.9486 6.73297 32.748 6.84201 32.5386 7.06011C32.3292 7.2782 32.1024 7.60971 31.8581 8.05462Z" fill="#0476D9"/>
<path d="M18.4507 8.64318H19.4321C20.4179 8.64318 21.3426 8.54286 22.2063 8.34221C23.0699 8.13284 23.9815 7.78389 24.9412 7.29536C24.7056 7.1994 24.3959 7.05546 24.0121 6.86354C23.2444 6.47097 22.577 6.27468 22.01 6.27468C21.6785 6.27468 21.3819 6.36628 21.1202 6.54948C20.8672 6.72396 20.6709 6.9246 20.5313 7.15142L19.4321 6.3532C20.0951 5.05336 20.9719 4.40344 22.0623 4.40344C22.4287 4.40344 22.782 4.4645 23.1223 4.58664C23.4625 4.70877 23.9597 4.93559 24.614 5.26709C25.12 5.5288 25.5475 5.72945 25.8964 5.86903C26.2541 6.00861 26.6467 6.12202 27.0741 6.20926L27.1395 7.96273C26.904 8.03252 26.4416 8.25498 25.7525 8.6301C25.7001 8.66499 25.6521 8.69553 25.6085 8.7217C25.5649 8.73914 25.5256 8.75659 25.4908 8.77404C24.6271 9.22768 23.8769 9.58099 23.24 9.83398C22.6032 10.087 21.9533 10.2789 21.2903 10.4097C20.6273 10.5319 19.877 10.5929 19.0395 10.5929H18.4507V8.64318ZM22.2324 1.09277C22.5029 1.35449 22.7689 1.62056 23.0307 1.891L23.4363 2.29665L22.2324 3.50053L21.0155 2.29665L22.2324 1.09277Z" fill="#0476D9"/>
<path d="M12.5718 12.7249C13.7669 12.4632 14.696 12.1622 15.359 11.822C16.022 11.4905 16.4582 11.0848 16.6676 10.605C15.708 10.5876 14.9316 10.4916 14.3383 10.3172C13.7451 10.134 13.3307 9.78937 13.0952 9.28339C12.9382 8.94317 12.8597 8.56805 12.8597 8.15803C12.8597 7.64333 12.9687 7.13299 13.1868 6.62701C13.4049 6.11231 13.7059 5.69357 14.0897 5.37079C14.4736 5.03929 14.8923 4.87354 15.3459 4.87354C15.7996 4.87354 16.2183 5.04365 16.6022 5.38387C16.986 5.7241 17.3044 6.1821 17.5574 6.75787C17.8191 7.33363 17.9936 7.96174 18.0808 8.6422H18.6304L18.7351 9.62362L18.6304 10.592H18.0416C17.8235 11.5603 17.2913 12.376 16.4451 13.039C15.6076 13.702 14.5172 14.16 13.1737 14.413L12.5718 12.7249ZM14.2991 8.1842C14.4212 8.34995 14.6873 8.46772 15.0973 8.53751C15.5073 8.59858 16.0395 8.63347 16.6938 8.6422C16.5716 8.06643 16.3753 7.58662 16.1049 7.20278C15.8345 6.81021 15.5291 6.61392 15.1889 6.61392C15.0144 6.61392 14.8487 6.67935 14.6916 6.81021C14.5433 6.93234 14.4256 7.08937 14.3383 7.28129C14.2511 7.47321 14.2075 7.65641 14.2075 7.83089C14.2075 7.97919 14.238 8.09696 14.2991 8.1842Z" fill="#0476D9"/>
<path d="M9.74433 10.5139C9.83157 9.93817 9.87519 9.04835 9.87519 7.84447C9.87519 6.64059 9.83593 5.38001 9.75742 4.06272C9.68763 2.73671 9.60475 1.80763 9.50879 1.27548L11.1445 0.895996C11.223 1.40197 11.2928 2.28744 11.3539 3.55238C11.4149 4.81732 11.4455 6.06046 11.4455 7.28179C11.4455 8.791 11.3931 9.92508 11.2884 10.6841L9.74433 10.5139Z" fill="#0476D9"/>
<path d="M2.17222 7.13803C1.9454 7.66145 1.77092 8.12381 1.64879 8.5251C1.52666 8.91767 1.46559 9.31896 1.46559 9.72898C1.46559 10.4443 1.69241 10.9765 2.14604 11.3254C2.59968 11.6831 3.25396 11.8619 4.10889 11.8619C4.71955 11.8619 5.2517 11.7529 5.70534 11.5348C6.1677 11.3254 6.51665 11.0463 6.75219 10.6973C6.99645 10.3571 7.11858 9.99506 7.11858 9.61121C7.11858 9.11396 6.83942 8.06711 6.2811 6.47066L7.68127 5.73786C8.23086 7.21218 8.50566 8.50329 8.50566 9.61121C8.50566 10.3702 8.32246 11.0681 7.95607 11.7049C7.58967 12.3417 7.0706 12.8477 6.39887 13.2228C5.73587 13.6067 4.97254 13.7986 4.10889 13.7986C3.29758 13.7986 2.58223 13.6416 1.96284 13.3275C1.34346 13.0222 0.85929 12.5816 0.51034 12.0059C0.170113 11.4301 0 10.754 0 9.97761C0 9.82058 0.0043619 9.69845 0.0130856 9.61121C0.0392569 9.11396 0.13958 8.59489 0.314055 8.05402C0.497254 7.51315 0.6979 7.01589 0.915994 6.56226L2.17222 7.13803ZM4.38369 4.57324C4.65412 4.83495 4.9202 5.10103 5.18191 5.37147L5.58757 5.77712L4.38369 6.981L3.16672 5.77712L4.38369 4.57324Z" fill="#0476D9"/>
</svg>
