<svg width="48" height="48" viewBox="0 0 48 48" fill="none" xmlns="http://www.w3.org/2000/svg">
<g style="mix-blend-mode:multiply">
<path d="M32.6208 29.2403C34.4232 25.3028 38.4148 22.6006 42.9503 22.2413C44.59 22.1113 45.9163 20.927 46.1855 19.3986L46.8603 15.5667C37.9005 14.3223 29.4152 18.9947 25.9633 26.5112C25.029 28.5457 26.3844 30.865 28.7082 31.2277C30.3413 31.4824 31.9663 30.6712 32.6213 29.2403H32.6208Z" fill="#27AAE1"/>
</g>
<g style="mix-blend-mode:multiply">
<path d="M25.6687 28.1484C25.3124 23.8747 22.4606 20.1047 18.2905 18.3878C16.7828 17.7671 15.9336 16.2431 16.2027 14.7152L16.8776 10.8833C25.785 12.426 32.2151 19.4245 32.9057 27.5872C33.0928 29.7967 31.0147 31.5803 28.6914 31.2181C27.0582 30.9634 25.7982 29.7022 25.6687 28.1489V28.1484Z" fill="#2BB673"/>
</g>
<g style="mix-blend-mode:multiply">
<path d="M14.9046 29.2403C13.1022 25.3028 9.11059 22.6006 4.5751 22.2413C2.93533 22.1113 1.60904 20.927 1.33991 19.3986L0.665039 15.5667C9.6249 14.3223 18.1102 18.9947 21.562 26.5112C22.4964 28.5457 21.141 30.865 18.8172 31.2277C17.1841 31.4824 15.5591 30.6712 14.9041 29.2403H14.9046Z" fill="#FBB040"/>
</g>
<g style="mix-blend-mode:multiply">
<path d="M21.8571 28.1484C22.2134 23.8747 25.0653 20.1047 29.2353 18.3878C30.7431 17.7671 31.5923 16.2431 31.3232 14.7152L30.6483 10.8833C21.7409 12.426 15.3108 19.4245 14.6201 27.5872C14.4331 29.7967 16.5112 31.5803 18.8345 31.2181C20.4676 30.9634 21.7277 29.7022 21.8571 28.1489V28.1484Z" fill="#D7DF23"/>
</g>
<g style="mix-blend-mode:multiply">
<path d="M5.10333 14.192C7.14626 14.192 8.80238 12.6334 8.80238 10.7107C8.80238 8.78809 7.14626 7.22949 5.10333 7.22949C3.06041 7.22949 1.4043 8.78809 1.4043 10.7107C1.4043 12.6334 3.06041 14.192 5.10333 14.192Z" fill="#FBB040"/>
</g>
<g style="mix-blend-mode:multiply">
<path d="M29.7752 7.62751C31.8181 7.62751 33.4743 6.0689 33.4743 4.14627C33.4743 2.22364 31.8181 0.665039 29.7752 0.665039C27.7323 0.665039 26.0762 2.22364 26.0762 4.14627C26.0762 6.0689 27.7323 7.62751 29.7752 7.62751Z" fill="#D7DF23"/>
</g>
<g style="mix-blend-mode:multiply">
<path d="M16.701 7.62751C18.7439 7.62751 20.4 6.0689 20.4 4.14627C20.4 2.22364 18.7439 0.665039 16.701 0.665039C14.6581 0.665039 13.002 2.22364 13.002 4.14627C13.002 6.0689 14.6581 7.62751 16.701 7.62751Z" fill="#2BB673"/>
</g>
<g style="mix-blend-mode:multiply">
<path d="M42.4549 14.192C44.4978 14.192 46.1539 12.6334 46.1539 10.7107C46.1539 8.78809 44.4978 7.22949 42.4549 7.22949C40.412 7.22949 38.7559 8.78809 38.7559 10.7107C38.7559 12.6334 40.412 14.192 42.4549 14.192Z" fill="#27AAE1"/>
</g>
<path d="M7.69126 40.0493L6.70852 40.6369C7.00078 42.1452 7.20004 43.2869 7.30632 44.0621C6.91654 44.2704 6.41868 44.4559 5.81213 44.6184C5.20558 44.781 4.50815 44.8622 3.72014 44.8622C3.01154 44.8622 2.48711 44.781 2.14625 44.6184C1.80538 44.4559 1.6348 44.1453 1.6348 43.6873C1.6348 43.4372 1.74107 42.8496 1.95362 41.9247L2.0599 41.4496L1.98019 41.3246L1.19641 41.2746C0.904158 42.433 0.731461 43.304 0.678323 43.8873C0.669266 43.9623 0.665039 44.0749 0.665039 44.2249C0.665039 44.983 0.912913 45.5374 1.40896 45.8875C1.90471 46.2375 2.59097 46.4126 3.46774 46.4126C4.43267 46.4126 5.27623 46.304 5.99811 46.0875C6.71969 45.8707 7.29304 45.5956 7.71814 45.2626C8.16075 44.9208 8.38235 44.4292 8.38235 43.7876C8.38235 43.271 8.20513 42.046 7.85098 40.1124L7.69157 40.0499L7.69126 40.0493Z" fill="#808285"/>
<path d="M5.12276 41.4986V41.3111L3.87433 40.7612L3.38281 41.7487V41.9487L4.63154 42.4738L5.12276 41.4986Z" fill="#808285"/>
<path d="M9.1467 42.121V42.5336C9.1467 43.1755 9.1156 43.8046 9.05371 44.4212L9.13342 44.5087L9.89063 44.3087C10.0322 43.8421 10.1252 43.4671 10.1696 43.1838C10.2137 42.9005 10.236 42.4882 10.236 41.9463V37.0723L9.08058 37.3473L9.147 42.121H9.1467Z" fill="#808285"/>
<path d="M22.8718 37.3319V37.1444L21.6231 36.5942L21.1318 37.5819V37.782L22.3803 38.3068L22.8718 37.3319Z" fill="#808285"/>
<path d="M26.8445 40.4802C26.7558 40.4637 26.5523 40.4176 26.2334 40.3426C25.8349 40.2511 25.3965 40.1261 24.9186 39.9676C24.4403 39.8093 24.1303 39.7093 23.9887 39.6675C23.4485 39.4842 23.0277 39.3487 22.727 39.2612C22.426 39.1736 22.1956 39.1299 22.0362 39.1299C21.7527 39.1299 21.5247 39.1986 21.352 39.3362C21.1793 39.4737 21.0045 39.6925 20.8273 39.9926L20.3623 40.7927L20.9469 41.4429H21.0531L21.5845 40.6927C21.6817 40.5594 21.8013 40.4927 21.9432 40.4927C22.0848 40.5094 22.2442 40.5469 22.4214 40.6052L24.613 41.3178L23.8558 41.7804C23.1829 42.1888 22.5763 42.4681 22.0362 42.6181C21.496 42.7681 20.8983 42.8431 20.2431 42.8431H19.4327H15.4215L15.355 42.3681C15.2488 41.7429 15.0761 41.2349 14.837 40.843C14.6422 40.543 14.4097 40.3034 14.1395 40.1241C13.8693 39.9451 13.5085 39.8553 13.0571 39.8553C12.4726 39.8553 12.0056 40.1011 11.656 40.593C11.306 41.0848 11.0781 41.8015 10.9718 42.7431L10.9585 43.0307C10.9585 43.4725 11.0935 43.7993 11.3637 44.0119C11.6336 44.2244 12.0167 44.3307 12.5125 44.3307H14.2524C14.0133 44.7722 13.6833 45.1575 13.2631 45.4869C12.8425 45.8159 12.3401 45.9807 11.7556 45.9807C11.5874 45.9807 11.4235 45.9765 11.2641 45.9682C11.1046 45.9597 10.963 45.9515 10.839 45.9432C10.6974 45.9265 10.5911 45.9182 10.5201 45.9182L10.4404 46.0057L10.7327 46.9556C11.2019 47.0889 11.5826 47.1889 11.8748 47.2557C12.1671 47.3225 12.3972 47.3475 12.5656 47.3307C12.911 47.289 13.2739 47.1369 13.6546 46.8744C14.0354 46.6118 14.3786 46.2637 14.6839 45.8307C14.9894 45.3974 15.2041 44.9183 15.3282 44.3932H19.4324H20.0834C21.4203 44.3932 22.775 43.9349 24.1478 43.0182L25.994 41.7682L27.1096 41.9558L27.6011 40.7808L27.548 40.6058C27.2026 40.5475 26.968 40.5057 26.8439 40.4807L26.8445 40.4802ZM12.7788 42.9679C12.4865 42.9679 12.2806 42.9409 12.1611 42.8866C12.0415 42.8326 11.9817 42.7139 11.9817 42.5303V42.4053C12.0349 41.8887 12.1387 41.5429 12.2939 41.3678C12.4488 41.1928 12.6858 41.1053 13.0046 41.1053C13.2347 41.1053 13.5004 41.1428 13.8017 41.2178C13.8989 41.4096 13.9985 41.6636 14.1006 41.9802C14.2023 42.297 14.2799 42.6221 14.3331 42.9551C14.0055 42.9636 13.4874 42.9676 12.7791 42.9676L12.7788 42.9679Z" fill="#808285"/>
<path d="M46.5723 41.0829C46.3909 40.7121 46.092 40.3935 45.6759 40.1267C45.2596 39.8602 44.6884 39.6184 43.9626 39.4016L40.8148 38.4517L40.6553 38.5392L40.3498 39.7266L40.8812 39.8892C40.6864 40.181 40.4959 40.6393 40.31 41.2642C40.2212 41.5142 40.1771 41.7475 40.1771 41.9643C40.1771 42.2726 40.2743 42.5519 40.4694 42.802C40.1152 42.827 39.7608 42.8395 39.4069 42.8395H35.5418C35.2051 42.8395 34.9394 42.7875 34.7447 42.6832C34.55 42.5792 34.4014 42.4269 34.2997 42.2269C34.1976 42.0268 34.1025 41.7435 34.0141 41.377L33.7617 40.3268C33.7173 40.1267 33.653 39.9915 33.569 39.9204C33.4848 39.8497 33.3544 39.8142 33.1772 39.8142C32.7786 39.8142 32.2717 39.8954 31.6564 40.058C31.0408 40.2205 30.4545 40.4185 29.8965 40.6518C29.3386 40.8851 28.9488 41.0977 28.7278 41.2895C28.4177 41.5563 28.2052 41.8501 28.0901 42.1706C27.9748 42.4914 27.9262 42.902 27.944 43.4018L28.0769 46.9534L29.2456 46.6659C29.2278 46.099 29.0995 43.3893 29.0995 42.9392C29.0995 42.6142 29.1037 42.3851 29.1127 42.2516C29.3959 42.0933 29.7057 41.9515 30.0423 41.8265C29.9361 42.2766 29.8829 42.6684 29.8829 43.0015C29.8829 44.0099 30.6087 44.514 32.0613 44.514H33.1772L33.5757 43.6391L33.6288 43.5266C33.8057 43.8349 34.0427 44.0559 34.3395 44.1892C34.636 44.3228 34.9437 44.3892 35.2625 44.3892H35.5415H39.473C40.447 44.3892 41.3235 44.2185 42.103 43.8766C42.4484 43.9767 42.9442 44.0599 43.5906 44.1267L46.0479 44.4018L46.8051 43.3518C46.8404 43.0768 46.8582 42.7852 46.8582 42.4769C46.8495 41.9186 46.7541 41.454 46.5726 41.0832L46.5723 41.0829ZM32.2475 43.0768C31.7871 43.0768 31.4393 43.029 31.205 42.933C30.9704 42.8372 30.853 42.6642 30.853 42.4141C30.853 42.1891 30.8928 41.885 30.9725 41.5017C31.5836 41.3102 32.0881 41.2142 32.4867 41.2142C32.5751 41.2142 32.6394 41.2329 32.6793 41.2704C32.7191 41.3079 32.7478 41.3727 32.7656 41.4642L33.0845 43.0768H32.2475ZM43.0991 41.9265C42.9218 42.1433 42.6827 42.3391 42.3817 42.5139C42.0097 42.4306 41.7175 42.3161 41.5052 42.17C41.2927 42.0243 41.1864 41.8262 41.1864 41.5762C41.1864 41.5429 41.1952 41.4594 41.213 41.3261C41.2749 41.1011 41.3479 40.8928 41.4322 40.701C41.5161 40.5095 41.5937 40.3634 41.6647 40.2634C41.8947 40.2802 42.094 40.3094 42.2625 40.3509C42.6166 40.4259 42.8886 40.549 43.0794 40.7197C43.2697 40.8905 43.3651 41.0928 43.3651 41.3261C43.3651 41.5094 43.2763 41.7094 43.0994 41.9262L43.0991 41.9265ZM44.1217 42.7767C44.0154 42.7685 43.878 42.7477 43.7098 42.7142C44.0196 42.2726 44.1881 41.781 44.2147 41.2392C44.2147 41.0809 44.2101 40.9641 44.2014 40.8891L44.5999 41.0141C45.025 41.1474 45.3257 41.3247 45.5029 41.5455C45.6799 41.7663 45.7861 42.0436 45.8218 42.3766C45.8393 42.5102 45.8483 42.7142 45.8483 42.9892L44.1217 42.7767Z" fill="#808285"/>
</svg>
