<svg width="48" height="48" viewBox="0 0 48 48" fill="none" xmlns="http://www.w3.org/2000/svg">
<path d="M44 17.38C44 19.76 43.62 21.96 42.96 24H5.04C4.38 21.96 4 19.76 4 17.38C4 11.2 8.98 6.19995 15.12 6.19995C18.74 6.19995 21.98 7.95995 24 10.66C26.02 7.95995 29.26 6.19995 32.88 6.19995C39.02 6.19995 44 11.2 44 17.38Z" fill="#F36CC5"/>
<path opacity="0.4" d="M42.96 24C39.8 34 30.06 39.98 25.24 41.62C24.56 41.86 23.44 41.86 22.76 41.62C17.94 39.98 8.20004 34 5.04004 24H42.96Z" fill="#F36CC5"/>
</svg>
