<svg width="48" height="48" viewBox="0 0 48 48" fill="none" xmlns="http://www.w3.org/2000/svg">
<rect width="48" height="48" rx="8" fill="#EBF6FD"/>
<path fill-rule="evenodd" clip-rule="evenodd" d="M36.1448 16.6133C37.377 17.1883 38.0054 17.8583 37.9875 19.0977C37.9337 22.8998 37.9275 26.7077 37.9993 30.5098C38.0232 31.6264 37.6408 31.9844 36.4563 32.1631C33.9198 32.5428 31.353 32.9615 28.9182 33.7041C27.3991 34.1729 26.5017 33.8211 25.4729 32.7549C28.4401 31.426 31.4793 30.5992 34.6379 30.2363C35.876 30.0967 36.1871 29.689 36.1692 28.5947C36.1094 24.6586 36.1448 20.7169 36.1448 16.6133ZM11.9934 29.7227C15.6366 30.6607 19.0947 31.549 22.8635 32.5205C21.5297 33.7933 20.6082 34.184 19.0471 33.7041C16.6663 32.9727 14.1536 32.5586 11.6711 32.1846C10.4868 32.0059 9.97144 31.744 10.0012 30.5049C10.0969 26.8479 10.0978 23.185 10.0081 19.5225C9.97216 18.1491 10.4922 17.2332 11.9934 16.4014V29.7227ZM34.8928 16.0605C34.8928 19.952 34.8745 23.838 34.9104 27.7295C34.9164 28.6116 34.6528 28.9691 33.6418 29.1924C31.1892 29.7395 28.79 30.4988 26.3733 31.1855C25.8649 31.3307 25.3804 31.5319 24.5969 31.7998C24.5969 26.8419 24.5854 22.1742 24.6213 17.501C24.6213 17.1939 24.8483 16.7419 25.1174 16.5967C28.0906 15.0445 31.2257 14.0054 34.8928 14.0166V16.0605ZM13.2034 14C16.7448 14.0168 19.7601 15.0333 22.6555 16.418C23.0023 16.5854 23.3494 17.1095 23.3557 17.4668C23.4036 22.14 23.386 26.8139 23.386 31.7217C22.7578 31.5318 22.2787 31.3752 21.7942 31.2412C19.234 30.5322 16.6618 29.8455 14.1135 29.0918C13.7547 28.9857 13.2516 28.5504 13.2454 28.2656C13.1855 23.5533 13.2034 18.8408 13.2034 14Z" fill="#0476D9"/>
</svg>
