<svg width="64" height="64" viewBox="0 0 64 64" fill="none" xmlns="http://www.w3.org/2000/svg">
<path opacity="0.4" d="M53.0136 55.8399C50.4803 57.7066 47.1469 58.6666 43.1736 58.6666H20.8269C20.1869 58.6666 19.5469 58.6399 18.9336 58.5599L37.3336 40.1599L53.0136 55.8399Z" fill="#FEC100"/>
<path opacity="0.4" d="M58.6668 20.8267V43.1734C58.6668 47.1467 57.7068 50.48 55.8402 53.0133L40.1602 37.3334L58.5601 18.9333C58.6401 19.5467 58.6668 20.1867 58.6668 20.8267Z" fill="#FEC100"/>
<path opacity="0.4" d="M40.1597 37.3333L55.8397 53.0132C55.0663 54.1332 54.133 55.0666 53.013 55.8399L37.333 40.1599L18.933 58.5599C17.2264 58.4533 15.6797 58.1066 14.2664 57.5732C8.55969 55.4932 5.33301 50.4266 5.33301 43.1733V20.8266C5.33301 11.1199 11.1197 5.33325 20.8263 5.33325H43.173C50.4263 5.33325 55.493 8.55991 57.573 14.2666C58.1063 15.6799 58.453 17.2266 58.5597 18.9332L40.1597 37.3333Z" fill="#FEC100"/>
<path d="M40.1599 37.3333L55.8399 53.0133C55.0666 54.1333 54.1333 55.0666 53.0133 55.8399L37.3333 40.1599L18.9333 58.5599C17.2266 58.4533 15.6799 58.1066 14.2666 57.5733L15.3066 56.5333L57.5732 14.2666C58.1066 15.6799 58.4532 17.2266 58.5599 18.9333L40.1599 37.3333Z" fill="#FEC100"/>
<path d="M32.6404 21.1466C31.6271 16.7466 27.7338 14.7732 24.3205 14.7466C20.9071 14.7466 17.0138 16.7199 16.0005 21.1199C14.8805 25.9999 17.8671 30.0799 20.5605 32.6399C21.6271 33.6532 22.9605 34.1333 24.3205 34.1333C25.6805 34.1333 27.0138 33.6266 28.0805 32.6399C30.7738 30.0799 33.7605 25.9999 32.6404 21.1466ZM24.4005 25.3066C22.9338 25.3066 21.7338 24.1066 21.7338 22.6399C21.7338 21.1732 22.9071 19.9732 24.4005 19.9732H24.4272C25.8938 19.9732 27.0938 21.1732 27.0938 22.6399C27.0938 24.1066 25.8671 25.3066 24.4005 25.3066Z" fill="#FEC100"/>
</svg>
