<svg width="39" height="48" viewBox="0 0 39 48" fill="none" xmlns="http://www.w3.org/2000/svg">
<g clip-path="url(#clip0_3443_1502)">
<path d="M22.3117 8.97199L20.8292 10.4582C20.3448 10.9426 19.7411 11.383 19.2493 11.1738C18.9356 11.0417 18.7888 10.6968 18.7136 10.3224C18.6659 10.0839 18.3227 8.89676 17.7558 8.00135C17.7833 8.32061 17.7374 8.67474 17.5998 9.0674L17.0585 11.0968C16.8805 11.7573 16.5796 12.4399 16.0475 12.5059C15.7099 12.5481 15.409 12.3243 15.1576 12.0362C14.998 11.8546 14.1044 10.9958 13.1686 10.5041C13.3521 10.7665 13.4897 11.0968 13.5668 11.5059L14.1117 13.5335C14.2879 14.194 14.3686 14.9371 13.9411 15.2601C13.6695 15.4656 13.297 15.4215 12.9356 15.2968C12.7062 15.2179 11.5044 14.9224 10.4457 14.9646C10.7356 15.1004 11.02 15.3169 11.2915 15.6325L12.7778 17.1151C13.2604 17.5995 13.7007 18.2032 13.4934 18.6949C13.3613 19.0087 13.0163 19.1555 12.642 19.2307C12.4035 19.2784 11.2163 19.6215 10.3209 20.1885C10.6402 20.161 10.9943 20.2069 11.387 20.3445L13.4163 20.8858C14.0769 21.0637 14.7594 21.3646 14.8255 21.8968C14.8677 22.2344 14.6438 22.5353 14.3558 22.7867C14.1723 22.9463 13.3154 23.838 12.8237 24.7757C13.086 24.5922 13.4163 24.4546 13.8255 24.3775L15.853 23.8325C16.5136 23.6564 17.2567 23.5757 17.5796 24.0032C17.7851 24.2747 17.7411 24.6472 17.6163 25.0087C17.5374 25.238 17.242 26.4399 17.2842 27.4986C17.42 27.2087 17.6365 26.9243 17.9521 26.6527L19.4347 25.1665C19.9191 24.6821 20.5209 24.2417 21.0145 24.4509C21.3282 24.583 21.475 24.928 21.5503 25.3023C21.598 25.5408 21.9411 26.728 22.5062 27.6234C22.4787 27.3041 22.5246 26.95 22.6622 26.5573L23.2035 24.528C23.3815 23.8674 23.6824 23.1848 24.2145 23.1188C24.5521 23.0766 24.853 23.3023 25.1044 23.5885C25.264 23.772 26.1576 24.6289 27.0934 25.1206C26.9099 24.8582 26.7723 24.528 26.6952 24.1188L26.1503 22.0913C25.9741 21.4307 25.8934 20.6876 26.3209 20.3647C26.5925 20.1591 26.9649 20.2032 27.3264 20.328C27.5558 20.4069 28.7576 20.7023 29.8163 20.6601C29.5264 20.5243 29.242 20.3078 28.9704 19.9922L27.4842 18.5096C27.0016 18.0252 26.5613 17.4215 26.7686 16.9298C26.9007 16.616 27.2457 16.4692 27.62 16.394C27.8585 16.3463 29.0457 16.0032 29.9411 15.4362C29.6218 15.4637 29.2677 15.4179 28.875 15.2802L26.8457 14.739C26.1851 14.561 25.5026 14.2601 25.4365 13.728C25.3943 13.3903 25.6181 13.0894 25.9062 12.838C26.0879 12.6784 26.9466 11.7867 27.4383 10.8491C27.1759 11.0325 26.8457 11.1702 26.4365 11.2472L24.409 11.7922C23.7484 11.9683 23.0053 12.0491 22.6824 11.6215C22.4769 11.35 22.5209 10.9775 22.6457 10.616C22.7246 10.3867 23.02 9.18483 22.9778 8.12612C22.842 8.41603 22.6255 8.70043 22.3099 8.97199M16.9044 6.49859C16.9136 6.50593 16.9227 6.51327 16.9337 6.52061C18.2163 7.53896 18.8126 9.08208 19.1026 10.2949C19.198 10.6949 19.5337 10.8362 19.8805 10.6472C20.1704 10.4894 20.398 10.1188 20.2126 9.52612C20.0695 9.06924 19.8842 8.44722 19.6934 8.05272C18.7374 6.07658 17.62 5.08025 15.9521 4.66373L20.5778 -0.000488281C22.1631 0.333457 23.4677 1.3885 23.9741 2.43804L27.0879 1.60318C27.2714 1.62153 27.4071 1.80502 27.5264 1.96098L20.9484 3.69309C21.6732 4.383 22.6108 5.36648 22.9925 6.39951C22.9961 6.41052 23.0016 6.42153 23.0071 6.43254C23.609 7.95548 23.3539 9.5885 22.998 10.7848C22.8805 11.1775 23.1007 11.4692 23.4952 11.4784C23.8255 11.4876 24.2071 11.2802 24.3429 10.6729C24.4475 10.205 24.598 9.57566 24.6292 9.13713C24.7888 6.94814 24.3191 5.52612 23.0842 4.32979L29.4237 2.60502C30.631 3.68759 31.2328 5.25272 31.1466 6.41419L34.2603 7.24905C34.409 7.35547 34.4365 7.583 34.4604 7.77749L27.897 5.9885C28.1796 6.94814 28.5007 8.26924 28.3136 9.35364C28.3136 9.36465 28.3117 9.37749 28.3099 9.39034C28.0695 11.0105 27.031 12.2968 26.1264 13.1555C25.8292 13.438 25.8732 13.7995 26.2108 14.005C26.4934 14.1775 26.9264 14.1885 27.3466 13.7316C27.6714 13.3775 28.1154 12.9078 28.3631 12.5445C29.5961 10.728 29.9007 9.26373 29.4273 7.60869L35.7796 9.28575C36.2842 10.8252 36.0218 12.4839 35.3668 13.4472L37.6475 15.7261C37.7227 15.8931 37.6328 16.1041 37.5558 16.2839L32.7668 11.4527C32.5301 12.4252 32.1484 13.7298 31.4438 14.5757C31.4365 14.5848 31.4292 14.594 31.4218 14.605C30.4035 15.8876 28.8603 16.4839 27.6475 16.7738C27.2475 16.8692 27.1062 17.205 27.2952 17.5518C27.453 17.8417 27.8237 18.0692 28.4163 17.8839C28.8732 17.7408 29.4952 17.5555 29.8897 17.3647C31.8659 16.4087 32.8622 15.2913 33.2787 13.6234L37.9411 18.2509C37.6071 19.8362 36.5521 21.1408 35.5026 21.6472L36.3374 24.761C36.3191 24.9445 36.1356 25.0802 35.9796 25.1995L34.2475 18.6215C33.5576 19.3463 32.5741 20.2839 31.5411 20.6656C31.5301 20.6711 31.5191 20.6747 31.5081 20.6802C29.9851 21.2821 28.3521 21.027 27.1558 20.6711C26.7613 20.5536 26.4714 20.7738 26.4622 21.1683C26.453 21.4986 26.6603 21.8802 27.2677 22.016C27.7356 22.1206 28.3649 22.2711 28.8035 22.3023C30.9925 22.4619 32.4145 21.9922 33.6108 20.7573L35.3356 27.0968C34.253 28.3041 32.6879 28.9059 31.5264 28.8197L30.6915 31.9335C30.5851 32.0839 30.3576 32.1096 30.1631 32.1335L31.9521 25.5702C30.9925 25.8527 29.6714 26.1738 28.587 25.9867C28.5759 25.9867 28.5631 25.9848 28.5503 25.983C26.9301 25.7426 25.6438 24.7041 24.7851 23.7995C24.5026 23.5023 24.1429 23.5463 23.9356 23.8839C23.7631 24.1665 23.7521 24.5995 24.209 25.0197C24.5631 25.3445 25.0328 25.7885 25.3961 26.0362C27.2126 27.2692 28.6769 27.5738 30.3319 27.1004L28.6548 33.4527C27.1154 33.9573 25.4585 33.6949 24.4952 33.0399L22.2145 35.3206C22.0475 35.3958 21.8365 35.3059 21.6567 35.2307L26.4879 30.4417C25.5154 30.205 24.2108 29.8234 23.3649 29.1188C23.3558 29.1114 23.3466 29.1041 23.3356 29.0968C22.053 28.0784 21.4567 26.5353 21.1668 25.3224C21.0714 24.9224 20.7356 24.7812 20.3888 24.9702C20.0989 25.128 19.8714 25.4986 20.0585 26.0913C20.2016 26.5481 20.387 27.1702 20.5778 27.5646C21.5337 29.5408 22.6512 30.5371 24.3191 30.9536L19.6915 35.616C18.1062 35.2821 16.8016 34.227 16.2952 33.1775L13.1815 34.0124C12.998 33.994 12.8622 33.8105 12.7429 33.6546L19.3209 31.9224C18.5961 31.2325 17.6585 30.2491 17.2769 29.216C17.2714 29.205 17.2677 29.194 17.2622 29.183C16.6604 27.6601 16.9154 26.027 17.2714 24.8307C17.3888 24.438 17.1686 24.1463 16.7741 24.1371C16.4438 24.128 16.0604 24.3353 15.9264 24.9426C15.8218 25.4105 15.6714 26.0399 15.6402 26.4784C15.4805 28.6674 15.9503 30.0876 17.1851 31.2857L10.8457 33.0105C9.63833 31.928 9.0365 30.3628 9.12274 29.2013L6.00898 28.3665C5.86035 28.2601 5.83283 28.0325 5.80898 27.838L12.3723 29.627C12.0897 28.6674 11.7686 27.3463 11.9558 26.2619C11.9558 26.2509 11.9576 26.238 11.9594 26.2252C12.1998 24.605 13.2383 23.3188 14.1429 22.4601C14.4402 22.1775 14.3961 21.816 14.0585 21.6105C13.7778 21.438 13.3429 21.427 12.9227 21.8839C12.598 22.238 12.1539 22.7078 11.9062 23.0711C10.6732 24.8876 10.3686 26.3518 10.842 28.0069L4.48971 26.3298C3.98512 24.7885 4.24751 23.1316 4.90255 22.1683L2.62182 19.8894C2.54659 19.7224 2.6365 19.5114 2.71356 19.3316L7.50255 24.1628C7.73742 23.1903 8.1209 21.8858 8.82549 21.0399C8.83283 21.0307 8.84017 21.0215 8.84751 21.0105C9.86586 19.728 11.409 19.1316 12.6218 18.8417C13.02 18.7463 13.1631 18.4105 12.9741 18.0637C12.8163 17.7738 12.4457 17.5463 11.853 17.7335C11.3961 17.8766 10.7741 18.0619 10.3796 18.2527C8.40347 19.2087 7.40714 20.3261 6.99063 21.994L2.32824 17.3665C2.66219 15.7812 3.71723 14.4766 4.76677 13.9702L3.93191 10.8564C3.95026 10.6729 4.13375 10.5371 4.28971 10.4179L6.02182 16.9958C6.71173 16.2711 7.69521 15.3335 8.72824 14.9518C8.73925 14.9463 8.75026 14.9426 8.76127 14.9371C10.2842 14.3353 11.9172 14.5903 13.1136 14.9463C13.5062 15.0637 13.7961 14.8435 13.8071 14.4491C13.8163 14.1188 13.609 13.7371 13.0016 13.6013C12.5337 13.4968 11.9044 13.3463 11.4659 13.3151C9.27687 13.1555 7.85668 13.6252 6.65852 14.8601L4.93375 8.52061C6.01631 7.31327 7.58145 6.71144 8.74292 6.79768L9.57778 3.68392C9.68421 3.53346 9.91173 3.50777 10.1062 3.48392L8.31723 10.0472C9.27687 9.76465 10.598 9.44355 11.6824 9.6307C11.6934 9.6307 11.7062 9.63254 11.7191 9.63437C13.3393 9.87474 14.6255 10.9133 15.4842 11.8179C15.7668 12.1151 16.1282 12.0711 16.3337 11.7335C16.5062 11.4509 16.5172 11.016 16.0604 10.5977C15.7062 10.2729 15.2365 9.82887 14.8732 9.58116C13.0567 8.34814 11.5925 8.04355 9.93742 8.51694L11.6145 2.16465C13.1539 1.66006 14.8126 1.92245 15.7741 2.57749L18.0548 0.296759C18.2218 0.22153 18.4328 0.311438 18.6126 0.386668L13.7815 5.17566C14.7539 5.41236 16.0585 5.79401 16.9044 6.49859Z" fill="#35A9E1"/>
<path d="M11.0768 41.3077C10.8603 41.405 10.7832 41.3884 11.0126 41.2288C11.3465 40.9958 11.7502 40.7059 11.9502 40.3921C11.6401 40.3591 11.5906 40.0949 11.7153 39.8618C11.7777 39.7462 11.8695 39.6508 11.9887 39.5829C12.1649 39.482 12.3135 39.5059 12.3869 39.6068C12.4988 39.7591 12.3851 40.0765 12.2897 40.2453C12.0438 40.6802 11.4603 41.1389 11.0786 41.3095M37.2181 39.7774C37.2309 39.8472 37.2603 40.027 37.1392 40.2839C37.0273 40.5242 36.7924 40.7462 36.73 40.8013C36.6603 40.8692 36.5814 40.9242 36.5007 40.8527C36.3282 40.7004 36.0493 40.5334 35.8805 40.4472C35.7612 40.3848 35.7759 40.3316 35.7942 40.282L36.4199 39.1297C36.6144 39.2673 36.8952 39.3352 37.0603 39.5187C37.1264 39.5921 37.2016 39.7004 37.2163 39.7738L37.2181 39.7774ZM5.05295 37.1848C5.06396 37.2508 5.08231 37.4196 4.95938 37.6563C4.84561 37.8765 4.61626 38.0765 4.55754 38.1261C4.48782 38.1866 4.41259 38.2361 4.34103 38.1664C4.1869 38.016 3.93185 37.8508 3.77772 37.7627C3.66763 37.7004 3.68415 37.649 3.7025 37.6049L4.33369 36.5517C4.51167 36.6875 4.77038 36.7628 4.91717 36.9407C4.97589 37.0123 5.04194 37.1169 5.05295 37.1866V37.1848ZM5.75387 38.5297C5.76488 38.5958 5.78323 38.7646 5.66029 39.0013C5.54653 39.2215 5.31717 39.4215 5.25846 39.471C5.19057 39.5334 5.1135 39.5811 5.04194 39.5114C4.88782 39.3609 4.63277 39.1958 4.47864 39.1077C4.44378 39.0875 4.42176 39.0692 4.40708 39.0508C4.3924 39.093 4.37405 39.1371 4.34837 39.1848C4.23461 39.4049 4.00525 39.605 3.94653 39.6545C3.87864 39.715 3.80158 39.7646 3.73002 39.6949C3.57405 39.5444 3.32084 39.3774 3.16672 39.2894C3.05662 39.227 3.07314 39.1756 3.09149 39.1316L3.72268 38.0783C3.90066 38.2141 4.15938 38.2894 4.30616 38.4692C4.36488 38.5407 4.43094 38.6453 4.44194 38.715C4.44745 38.7462 4.45295 38.8031 4.44561 38.8783L5.03461 37.8967C5.21259 38.0343 5.4713 38.1077 5.61809 38.2857C5.67681 38.3572 5.74286 38.4618 5.75387 38.5316V38.5297ZM29.919 38.9939C29.93 39.0618 29.9502 39.2398 29.8218 39.4875C29.7025 39.7187 29.4621 39.9279 29.3997 39.9793C29.3282 40.0435 29.2493 40.0949 29.1722 40.0215C29.0108 39.8637 28.7429 39.6894 28.5814 39.5976C28.5447 39.5756 28.5208 39.5572 28.508 39.5389C28.4933 39.5829 28.4731 39.6306 28.4474 39.6802C28.3282 39.9114 28.0878 40.1205 28.0254 40.1719C27.9539 40.2361 27.8731 40.2875 27.7979 40.2141C27.6364 40.0563 27.3686 39.882 27.2071 39.7903C27.0915 39.7242 27.1098 39.6728 27.13 39.6251L27.7906 38.5224C27.9759 38.6655 28.2474 38.7426 28.4016 38.9297C28.464 39.005 28.5319 39.1132 28.5447 39.1866C28.5502 39.2196 28.5575 39.2783 28.5484 39.3591L29.1649 38.3316C29.3502 38.4747 29.6218 38.5536 29.7759 38.7389C29.8383 38.8141 29.9062 38.9224 29.9172 38.9958L29.919 38.9939ZM26.7777 46.8894C26.7906 46.9591 26.8199 47.1389 26.6988 47.3958C26.5869 47.6361 26.352 47.8582 26.2915 47.9132C26.2199 47.9811 26.1429 48.038 26.0621 47.9664C25.8897 47.8123 25.6108 47.6472 25.4438 47.5609C25.3245 47.4985 25.3392 47.4453 25.3575 47.3958L25.9832 46.2435C26.1777 46.3811 26.4585 46.449 26.6236 46.6325C26.6897 46.7059 26.7649 46.8141 26.7796 46.8875L26.7777 46.8894ZM22.6016 39.2728C22.6163 39.3426 22.6438 39.5224 22.5227 39.7793C22.4108 40.0196 22.1759 40.2416 22.1135 40.2967C22.0438 40.3646 21.9649 40.4215 21.8841 40.3481C21.7117 40.1958 21.4328 40.0288 21.264 39.9426C21.1447 39.8802 21.1594 39.827 21.1777 39.7774L21.8034 38.6251C21.9979 38.7627 22.2786 38.8306 22.4438 39.0141C22.5098 39.0875 22.5851 39.1958 22.5997 39.2692L22.6016 39.2728ZM4.63277 41.5371C4.60708 41.3774 4.58506 41.1756 4.40525 40.9939C4.25479 40.8416 4.08231 40.7811 3.88048 40.7829C3.80341 40.7829 3.72818 40.816 3.68415 40.8875C3.52635 41.1389 3.32635 41.493 3.1869 41.805C3.06213 42.082 3.16855 42.4013 3.41626 42.4875C3.61626 42.5572 3.79791 42.5389 3.93185 42.4838C3.97956 42.4637 4.01075 42.482 3.98506 42.5242C3.76305 42.8894 3.03277 43.416 1.88048 43.9646C1.75571 44.0233 1.77405 44.1389 1.88048 44.1095C2.22543 44.0178 2.508 43.8618 2.8713 43.7389C3.07314 43.671 3.36121 43.7022 3.49699 43.6435C3.73002 43.5426 3.8291 43.4472 3.94286 43.2985C4.24378 42.9114 4.39057 42.5866 4.52818 42.2178C4.69149 42.1738 4.85295 42.1059 5.0236 41.9793C5.20892 41.9866 5.40892 41.8802 5.57589 41.7334C5.18506 42.4655 4.83827 43.2233 4.6236 44.0838C4.13185 46.0673 4.87314 47.0178 5.79974 47.1628C6.73919 47.3095 7.7025 47.005 8.58506 45.8086C9.04194 45.1903 9.508 44.0765 9.51167 43.0563C9.51167 42.7903 9.49883 42.5132 9.27314 42.3426C9.13185 42.2343 8.92451 42.2178 8.73919 42.1462C8.52084 42.06 8.51534 41.9224 8.55938 41.7683C8.71901 41.4196 9.09699 41.1095 9.45295 40.8747C9.84378 40.616 10.2419 40.427 10.6456 40.1554C10.875 39.9994 11.0419 39.816 11.1447 39.6545C11.2915 39.427 11.3062 39.0912 11.1227 38.9683C10.8658 38.7958 10.6218 38.7297 10.2456 38.6875C10.1539 38.6765 10.0364 38.7261 9.97589 38.8086C9.78506 39.0655 9.56855 39.3352 9.36488 39.6857C9.23644 39.9059 9.28782 40.1352 9.58323 40.2178C9.21442 40.4527 8.37039 41.3352 8.09516 42.0894C7.84194 42.7811 7.81809 43.1591 8.12451 43.4086C8.35571 43.5976 8.61626 43.5609 8.83827 43.7077C9.05846 43.8545 9.05295 44.1224 8.89883 44.3701C8.25295 45.4123 7.06029 45.8967 6.17589 45.7646C5.19791 45.6196 4.86029 44.9114 4.94103 44.1866C5.05479 43.1793 5.49149 42.3939 5.79974 41.671C5.97406 41.6196 6.09516 41.5114 6.19057 41.3829C6.56121 41.3205 6.77039 41.1297 6.95571 40.8086C7.12268 40.5004 7.19424 40.2233 7.19424 39.8692C7.19424 39.4857 6.94653 39.1517 6.66029 39.0123C7.56305 38.4875 8.35571 38.071 9.27864 37.5334C9.71901 37.2765 10.1686 36.9976 10.5722 36.6838C10.8346 36.4802 10.9814 36.2802 11.152 36.0068C11.3722 35.6582 11.6511 35.2783 11.13 35.7114C10.2566 36.4545 9.00158 37.1059 7.97405 37.7297C7.37956 38.0894 6.90617 38.3536 6.60158 38.9884L6.58323 38.9811C6.48231 39.1389 6.40892 39.3022 6.32635 39.4765C6.26763 39.6031 6.19974 39.704 6.38323 39.7719C6.62727 39.8655 6.87497 39.9756 6.87497 40.2839C6.87497 40.405 6.8291 40.515 6.73919 40.6141C6.63644 40.7261 6.47864 40.816 6.32818 40.6949C6.26763 40.8123 6.16855 40.9627 6.05295 41.0233C5.92635 41.0802 5.87864 41.0527 5.77956 40.9866C5.74837 40.9939 5.75754 41.0251 5.71717 41.0875C5.66947 41.1628 5.58873 41.2435 5.49516 41.2894C5.36855 41.3517 5.24561 41.3297 5.18323 41.2545C5.1502 41.2545 5.12818 41.3352 5.07497 41.3884C4.97772 41.4875 4.86763 41.5389 4.7447 41.5701C4.7025 41.5811 4.64194 41.6031 4.63094 41.5389L4.63277 41.5371ZM12.152 42.871C11.9355 43.2618 11.7539 43.4233 11.6383 43.4839C11.5942 43.5059 11.5741 43.5059 11.5465 43.4582C11.3612 43.1242 11.13 42.9646 10.8383 42.9683C10.7612 42.9683 10.686 43.0013 10.6401 43.0728C10.4823 43.3261 10.2823 43.6783 10.141 43.9903C10.0163 44.2673 10.1227 44.5866 10.3704 44.6728C10.5704 44.7426 10.752 44.7242 10.886 44.6692C10.9355 44.649 10.9649 44.6673 10.9392 44.7095C10.7172 45.0747 9.9869 45.6013 8.83461 46.1499C8.708 46.2105 8.72818 46.3224 8.83461 46.2949C9.17956 46.2031 9.46213 46.0472 9.82543 45.9242C10.0273 45.8563 10.3135 45.8875 10.4511 45.8288C10.6841 45.7279 10.7832 45.6325 10.897 45.4839C11.1979 45.0967 11.3777 44.6802 11.5135 44.3095C11.9043 43.8582 12.0511 43.5536 12.2364 43.3444C12.3502 43.216 12.5777 43.1517 12.7392 43.1994C12.8823 43.2416 13.0144 43.2985 13.1539 43.3646C13.253 43.4123 13.3759 43.3939 13.4786 43.2673C13.6346 43.0692 13.7906 42.8527 13.919 42.5664C13.963 42.4692 13.919 42.3976 13.8144 42.3462C13.6621 42.271 13.5043 42.1517 13.3796 42.0178C13.1979 41.8233 13.2328 41.6857 13.4493 41.5224C13.8181 41.2472 14.2658 41.0215 14.6585 40.7536C14.8548 40.6196 15.0511 40.493 15.2364 40.3426C15.2731 40.3132 15.3759 40.1756 15.4438 40.0692C15.4897 39.9976 15.4474 39.9462 15.3484 40.005C15.1539 40.1205 14.8823 40.3132 14.5392 40.3958C14.2236 40.4196 13.8108 40.2875 13.6438 40.115C13.5245 39.9903 13.6493 39.8655 13.708 39.7939C13.9667 39.4875 14.2897 39.4618 14.6071 39.5793C14.7961 39.649 15.0364 39.3774 14.7887 39.1095C14.5355 38.8343 14.0383 39.0306 13.8254 39.3077C13.4897 39.7444 13.4089 39.8435 13.0786 40.3903C12.9465 40.6105 12.9245 40.8068 13.0566 40.9316C13.1245 40.9958 13.4016 41.1261 13.4401 41.1481C13.075 41.4105 12.9172 41.7536 12.741 42.1187C12.4988 42.3352 12.3025 42.5994 12.1502 42.8728L12.152 42.871ZM19.9502 39.1352C20.1851 39.06 20.2585 39.1903 20.1759 39.4233C20.0493 39.7793 19.9098 40.1095 19.7447 40.427C19.6603 40.5903 19.6273 40.5499 19.5832 40.4655C19.53 40.3609 19.3594 40.3628 19.163 40.427C18.6071 40.6123 17.9429 41.1738 17.6676 41.682C17.5392 41.9187 17.5098 42.1132 17.7759 42.2233C17.9594 42.2985 18.1612 42.3169 18.3007 42.427C18.5208 42.6013 18.5686 42.8802 18.5667 43.1481C18.5594 44.1939 18.0493 45.2031 17.5906 45.816C16.7007 47.005 15.7447 47.2985 14.8163 47.1389C13.9025 46.9811 13.1796 46.0178 13.6933 44.0325C13.9777 42.9334 14.475 42.005 15.0016 41.0875C15.0676 40.9719 15.1208 41.0105 15.0676 41.1664C14.7796 42.0196 14.1575 42.9095 14.0052 44.1371C13.9153 44.8637 14.2401 45.5793 15.2052 45.7371C16.0786 45.8802 17.2695 45.4123 17.9172 44.3719C18.0511 44.1572 18.0199 43.9132 17.8493 43.7884C17.6346 43.6325 17.3741 43.671 17.1465 43.4783C16.8474 43.2233 16.8585 42.8765 17.1355 42.1536C17.3869 41.4985 17.7759 40.9224 18.1612 40.449C18.6897 39.7994 19.2933 39.3407 19.9447 39.1334L19.9502 39.1352ZM28.3447 45.0692V45.0802C28.4768 45.0894 28.6199 45.0692 28.7649 45.0068C29.0585 44.882 29.1887 44.715 29.4181 44.5004C29.5924 44.3371 29.8052 44.2398 30.0273 44.3095C30.2805 44.3903 30.4952 44.4637 30.6089 44.2031C30.6915 44.016 30.6071 43.6912 30.4456 43.4839C30.2438 43.2233 30.0273 43.049 29.7796 42.9719C29.6915 42.9444 29.6952 42.9114 29.73 42.8178C29.8016 42.6215 29.9869 42.2894 30.075 42.0747C30.4438 42.1059 30.908 42.5352 30.9741 43.0949C31.0199 43.4802 30.919 44.0141 30.7098 44.4692C30.6126 44.682 30.5062 44.8233 30.3502 44.9939C30.1392 45.2288 29.9539 45.2288 29.7539 45.1316C29.4108 44.9646 29.0291 45.2857 28.8878 45.5169C28.7062 45.8141 28.5337 46.038 28.3465 46.1774V46.2013C28.1594 46.3059 27.9429 46.3738 27.7172 46.3297C26.941 46.1848 26.9612 45.1132 27.0658 44.5187C27.1465 44.0618 27.3355 43.5095 27.8089 42.7848C28.0218 42.5132 28.1704 42.5205 27.9759 42.8728C27.6456 43.4472 27.0291 44.7224 27.9887 45.0251C28.0823 45.0545 28.1704 45.0692 28.2511 45.071V45.0655C28.2511 45.0655 28.2695 45.0692 28.2786 45.071C28.3025 45.071 28.3245 45.0692 28.3484 45.0673L28.3447 45.0692ZM29.0988 40.4747C29.0768 41.071 28.6713 41.4765 28.319 41.715C27.5153 42.2637 26.4841 42.6545 25.675 43.1774C25.3961 43.3572 25.2456 43.5114 25.0897 43.7132C25.0108 43.816 25.0401 43.8563 25.1098 43.8527C25.4841 43.8325 25.8621 43.7444 26.1942 43.6288C26.3465 43.5756 26.4144 43.6251 26.3906 43.816C26.3796 43.9077 26.3667 43.9884 26.308 44.0728C26.2438 44.1628 26.1539 44.3848 26.075 44.5774C25.763 45.3316 25.1961 46.216 24.3392 46.3316C23.552 46.438 23.0878 45.7994 23.2052 44.9059C23.2768 44.3572 23.453 43.8673 23.675 43.4912C23.7447 43.3738 23.8768 43.3664 23.8089 43.5407C23.53 44.2692 23.486 44.9132 24.2144 45.104C24.6823 45.227 25.4383 45.0508 25.8364 44.4013C25.8878 44.3187 25.8805 44.2967 25.8126 44.315C25.4548 44.4105 25.1777 44.4765 24.8052 44.4967C24.5263 44.5132 24.4291 44.3499 24.5594 44.0563C24.8291 43.449 25.2952 42.693 26.13 42.1572C26.9263 41.6453 28.2016 41.1261 28.6199 40.7627C28.7502 40.649 28.8548 40.5554 28.9337 40.4563C29.0163 40.3517 29.108 40.2453 29.1007 40.4728L29.0988 40.4747ZM32.7814 42.2453C32.5832 42.5903 32.297 42.9774 32.1025 43.3316C32.0731 43.3829 32.0841 43.4527 32.1208 43.4692C32.519 43.6545 33.1172 44.1939 33.0163 44.6802C32.9227 44.893 32.2676 45.3829 31.4236 45.9095C31.2603 46.0123 31.3814 46.0949 31.4768 46.0472C31.7484 45.915 31.9814 45.849 32.2548 45.7554C32.3594 45.7205 32.4823 45.6967 32.5924 45.7004C32.7429 45.7059 32.8291 45.6545 32.9227 45.5481C33.2401 45.1939 33.5208 44.6802 33.6438 44.1811C33.7557 43.7334 33.7796 43.4031 33.5502 42.9554C33.4383 42.7352 33.1117 42.4361 32.7814 42.2435V42.2453ZM2.82176 40.3958C2.62176 40.9536 2.41442 41.3481 2.01626 41.7829C1.45112 42.3976 0.663963 42.8783 0.0639626 43.3371C-0.0149365 43.3976 -0.0387897 43.5316 0.106164 43.4692C0.416256 43.3371 0.634605 43.1884 0.986898 43.0563C1.08782 43.0196 1.24378 42.9829 1.37038 42.9664C1.49332 42.9481 1.60708 42.8765 1.69883 42.8196C2.19974 42.5077 2.76672 41.7921 2.95387 40.4013C2.97038 40.2783 2.87681 40.2435 2.8236 40.3939L2.82176 40.3958ZM25.2493 39.1646C25.2621 39.2343 25.2915 39.4141 25.1704 39.671C25.0585 39.9114 24.8236 40.1334 24.763 40.1884C24.6915 40.2563 24.6144 40.3114 24.5337 40.2398C24.3612 40.0875 24.0823 39.9206 23.9135 39.8343C23.7942 39.7719 23.8089 39.7187 23.8273 39.6692L24.453 38.5169C24.6475 38.6545 24.9282 38.7224 25.0933 38.9059C25.1594 38.9793 25.2346 39.0875 25.2493 39.1609V39.1646ZM34.6566 39.0416C32.7263 40.1958 31.3832 40.7903 29.8933 41.8325C29.6273 42.0196 29.3227 42.3059 29.0695 42.5646C28.8676 42.7719 28.8456 42.6875 28.8952 42.5921C29.2218 41.9627 29.6603 41.4361 30.1263 41.0031C30.8016 40.3774 32.4401 39.5903 34.664 38.3261C35.352 37.9352 35.9502 37.4435 36.486 36.8545C36.5319 36.805 36.6199 36.8765 36.5686 36.9554C36.4585 37.1279 36.3355 37.2857 36.2218 37.4894C35.8621 38.1334 35.6548 38.2949 35.4273 38.5077C35.1906 38.7297 34.9245 38.882 34.6548 39.0435L34.6566 39.0416ZM36.9447 44.5077C37.0309 44.3004 37.1172 44.0637 37.1429 43.8783C37.3337 43.9499 37.7355 44.0545 37.9025 44.1738C37.9814 44.2306 37.9906 44.3261 37.9337 44.427C37.8786 44.5371 37.3043 44.5407 36.9447 44.5095V44.5077ZM36.8218 44.1683C36.7796 44.3242 36.6254 44.471 36.4273 44.4967C36.1208 44.5352 35.9704 44.4123 35.9153 44.2839C35.8328 44.0875 36.0163 43.7022 36.3153 43.5738C36.6438 43.5664 36.908 43.8563 36.8218 44.1701V44.1683ZM34.2383 44.7903C34.2456 45.1481 34.4493 45.9352 35.2383 45.904C35.8364 45.882 36.1979 45.5646 36.5759 45.0875C36.6878 45.0618 36.8841 45.0582 37.0034 45.0563C37.4933 45.049 38.0511 45.038 38.363 44.1591C38.4695 43.8582 38.3484 43.638 38.1025 43.5389C37.7796 43.4086 37.3906 43.2839 37.1025 43.1095C36.875 42.9719 36.7612 42.7517 37.1117 42.4545C37.3135 42.2839 37.5062 42.1683 37.7722 42.0637C37.8805 42.0215 37.941 41.9627 38.0089 41.871C38.0915 41.7591 38.1539 41.6361 38.2089 41.5059C38.3429 41.238 37.9135 41.5095 37.8603 41.5426C37.541 41.7426 37.2199 41.9811 36.9594 42.2508C36.7245 42.493 36.53 42.7921 36.363 43.0728C36.0438 43.4215 35.5777 43.9701 35.5263 44.6435C35.286 44.6582 35.0291 44.5646 34.8841 44.3664C34.6713 44.0783 34.7153 43.638 34.7796 43.3022C34.8493 42.9371 34.9832 42.5903 35.0988 42.2508C35.1997 41.9517 35.1062 41.7958 34.9997 42.0894C34.6493 43.0637 34.2163 43.9187 34.2328 44.7921L34.2383 44.7903ZM21.5667 44.7903C21.653 44.5829 21.7374 44.3462 21.7649 44.1609C21.9557 44.2325 22.3575 44.3371 22.5245 44.4563C22.6034 44.5132 22.6126 44.6086 22.5575 44.7095C22.5025 44.8196 21.9282 44.8215 21.5686 44.7921L21.5667 44.7903ZM21.4456 44.4508C21.4034 44.6068 21.2493 44.7536 21.0511 44.7793C20.7429 44.8178 20.5942 44.6949 20.5392 44.5664C20.4566 44.3701 20.6401 43.9848 20.9392 43.8563C21.2676 43.849 21.5319 44.1389 21.4456 44.4527V44.4508ZM19.8621 46.1884C20.4603 46.1664 20.8218 45.849 21.1997 45.3719C21.3117 45.3444 21.508 45.3426 21.6273 45.3407C22.1172 45.3334 22.6768 45.3224 22.9869 44.4435C23.0933 44.1426 22.9777 43.9114 22.7263 43.8233C22.5172 43.7481 22.2548 43.638 22.0309 43.5499C21.7851 43.4545 21.3796 43.2417 21.3649 42.7628C21.3612 42.6306 21.3098 42.6582 21.2401 42.7628C21.1208 42.9407 21.0658 43.0215 20.9851 43.1939C20.963 43.271 20.9667 43.3187 20.9851 43.3627C20.653 43.805 20.2071 44.2123 20.1539 44.9261C19.9135 44.9407 19.6566 44.8472 19.5117 44.649C19.2988 44.3609 19.3429 43.9205 19.4071 43.5848C19.4768 43.2196 19.6108 42.8728 19.7245 42.5334C19.8254 42.2343 19.7319 42.0783 19.6254 42.3719C19.2768 43.3462 18.8419 44.2013 18.8585 45.0747C18.8658 45.4325 19.0695 46.2178 19.8585 46.1884H19.8621ZM25.7153 40.7334C25.5575 41.0894 25.3612 41.3921 25.0364 41.4894C24.8364 41.5499 24.7227 41.5077 24.6566 41.4325C24.4878 41.2361 24.2071 41.3279 24.0566 41.3664C23.3007 41.5646 22.5649 42.4233 22.2566 43.1774C22.1832 43.3572 22.2823 43.3444 22.3557 43.2545C22.6621 42.8765 23.108 42.4343 23.7135 42.3334C23.8695 42.3077 23.9832 42.3683 24.0823 42.4673C24.163 42.5481 24.3484 42.5774 24.6144 42.504C25.0511 42.3848 25.7208 41.6894 25.7997 40.7627C25.8052 40.7004 25.7484 40.6527 25.7135 40.7316L25.7153 40.7334Z" fill="#F39223"/>
<path d="M20.1357 12.8765L20.9981 14.0325L22.2788 13.3646L22.5541 14.7811L23.9963 14.7352L23.6311 16.1316L24.9504 16.7169L24.0165 17.816L24.9504 18.9151L23.6311 19.5004L23.9963 20.8949L22.5541 20.849L22.2788 22.2655L20.9981 21.5995L20.1357 22.7554L19.2715 21.5995L17.9926 22.2655L17.7155 20.8508L16.2733 20.8949L16.6385 19.5004L15.3192 18.9151L16.2532 17.816L15.3192 16.7169L16.6385 16.1316L16.2733 14.7352L17.7155 14.7811L17.9926 13.3646L19.2715 14.0325L20.1357 12.8765Z" fill="#1A70B8"/>
</g>
<defs>
<clipPath id="clip0_3443_1502">
<rect width="38.4055" height="48" fill="white"/>
</clipPath>
</defs>
</svg>
