<svg width="64" height="64" viewBox="0 0 64 64" fill="none" xmlns="http://www.w3.org/2000/svg">
<path d="M38.667 28.6667H22.667C21.5737 28.6667 20.667 27.7601 20.667 26.6667C20.667 25.5734 21.5737 24.6667 22.667 24.6667H38.667C39.7603 24.6667 40.667 25.5734 40.667 26.6667C40.667 27.7601 39.7603 28.6667 38.667 28.6667Z" fill="#A88EFF"/>
<path d="M30.667 36.6667H22.667C21.5737 36.6667 20.667 35.7601 20.667 34.6667C20.667 33.5734 21.5737 32.6667 22.667 32.6667H30.667C31.7603 32.6667 32.667 33.5734 32.667 34.6667C32.667 35.7601 31.7603 36.6667 30.667 36.6667Z" fill="#A88EFF"/>
<path opacity="0.4" d="M30.6663 55.9999C44.6576 55.9999 55.9997 44.6578 55.9997 30.6666C55.9997 16.6754 44.6576 5.33325 30.6663 5.33325C16.6751 5.33325 5.33301 16.6754 5.33301 30.6666C5.33301 44.6578 16.6751 55.9999 30.6663 55.9999Z" fill="#A88EFF"/>
<path d="M56.7998 58.6667C56.3198 58.6667 55.8398 58.4801 55.4932 58.1334L50.5332 53.1734C49.8132 52.4534 49.8132 51.2801 50.5332 50.5334C51.2532 49.8134 52.4265 49.8134 53.1732 50.5334L58.1332 55.4934C58.8532 56.2134 58.8532 57.3867 58.1332 58.1334C57.7598 58.4801 57.2798 58.6667 56.7998 58.6667Z" fill="#A88EFF"/>
</svg>
